<?xml version="1.0" encoding="UTF-8" standalone="no"?>
<!-- Generator: Adobe Illustrator 15.0.2, SVG Export Plug-In . SVG Version: 6.00 Build 0)  -->

<svg
   xmlns:dc="http://purl.org/dc/elements/1.1/"
   xmlns:cc="http://creativecommons.org/ns#"
   xmlns:rdf="http://www.w3.org/1999/02/22-rdf-syntax-ns#"
   xmlns:svg="http://www.w3.org/2000/svg"
   xmlns="http://www.w3.org/2000/svg"
   xmlns:xlink="http://www.w3.org/1999/xlink"
   xmlns:sodipodi="http://sodipodi.sourceforge.net/DTD/sodipodi-0.dtd"
   xmlns:inkscape="http://www.inkscape.org/namespaces/inkscape"
   version="1.1"
   id="Calque_1"
   x="0px"
   y="0px"
   width="191"
   height="106"
   viewBox="0 0 190.99999 106"
   enable-background="new 0 0 595.28 841.89"
   xml:space="preserve"
   inkscape:version="0.48.4 r9939"
   sodipodi:docname="tab5xJC.pdf"
   inkscape:export-filename="/home/ludo/src/inria-doc-style/figuresHomemade/tab5x.pdf.png"
   inkscape:export-xdpi="87.669998"
   inkscape:export-ydpi="87.669998"><metadata
     id="metadata92"><rdf:RDF><cc:Work
         rdf:about=""><dc:format>image/svg+xml</dc:format><dc:type
           rdf:resource="http://purl.org/dc/dcmitype/StillImage" /><dc:title></dc:title></cc:Work></rdf:RDF></metadata><defs
     id="defs90"><inkscape:perspective
       sodipodi:type="inkscape:persp3d"
       inkscape:vp_x="0 : 420.94501 : 1"
       inkscape:vp_y="0 : 1000 : 0"
       inkscape:vp_z="595.28003 : 420.94501 : 1"
       inkscape:persp3d-origin="297.64001 : 280.63 : 1"
       id="perspective94" /><inkscape:perspective
       id="perspective3775"
       inkscape:persp3d-origin="0.5 : 0.33333333 : 1"
       inkscape:vp_z="1 : 0.5 : 1"
       inkscape:vp_y="0 : 1000 : 0"
       inkscape:vp_x="0 : 0.5 : 1"
       sodipodi:type="inkscape:persp3d" /><filter
       inkscape:collect="always"
       id="filter3715"
       color-interpolation-filters="sRGB"><feGaussianBlur
         inkscape:collect="always"
         stdDeviation="4.7731613"
         id="feGaussianBlur3717" /></filter><radialGradient
       inkscape:collect="always"
       xlink:href="#SVGID_1_"
       id="radialGradient3064"
       gradientUnits="userSpaceOnUse"
       gradientTransform="matrix(1.5,0,0,1.5,-128.8574,-125.1348)"
       cx="275.14359"
       cy="385.86819"
       r="43.4492" /><clipPath
       id="clipPath4399-6"
       clipPathUnits="userSpaceOnUse"><path
         inkscape:connector-curvature="0"
         id="path4401-3"
         d="m 98.391,216.173 287.715,0 0,-162.066 -287.715,0 0,162.066 z" /></clipPath><clipPath
       id="clipPath4407-7"
       clipPathUnits="userSpaceOnUse"><path
         inkscape:connector-curvature="0"
         id="path4409-1"
         d="m 122,100 240,0 0,93 -240,0 0,-93 z" /></clipPath><clipPath
       clipPathUnits="userSpaceOnUse"
       id="clipPath4653"><rect
         style="opacity:0.65591401;fill:#ff3434;fill-opacity:1;stroke:none"
         id="rect4655"
         width="134.35028"
         height="145.664"
         x="-446.18439"
         y="-65.119843"
         rx="11.79465"
         ry="48.896229" /></clipPath><clipPath
       clipPathUnits="userSpaceOnUse"
       id="clipPath4033"><rect
         ry="9.4707499"
         rx="9.4707499"
         y="95.023384"
         x="-345.27023"
         height="105.58626"
         width="142.06546"
         id="rect4035"
         style="fill:none;stroke:#000000;stroke-width:0.80296993;stroke-opacity:1;display:inline" /></clipPath></defs><sodipodi:namedview
     pagecolor="#ffffff"
     bordercolor="#666666"
     borderopacity="1"
     objecttolerance="10"
     gridtolerance="10"
     guidetolerance="10"
     inkscape:pageopacity="0"
     inkscape:pageshadow="2"
     inkscape:window-width="1366"
     inkscape:window-height="709"
     id="namedview88"
     showgrid="false"
     inkscape:zoom="2.16"
     inkscape:cx="107.08791"
     inkscape:cy="36.362736"
     inkscape:window-x="0"
     inkscape:window-y="27"
     inkscape:window-maximized="1"
     inkscape:current-layer="layer2" /><g
     inkscape:groupmode="layer"
     id="layer3"
     inkscape:label="Background"
     style="display:inline"><g
       style="display:inline"
       transform="matrix(1.05,0,0,1.05,-211.7887,-426.68941)"
       id="g4024"><rect
         ry="11.233"
         rx="11.233"
         y="413.86533"
         x="208.38971"
         height="125.233"
         width="168.5"
         id="rect2941"
         style="opacity:0.70000012;fill:#000000;fill-opacity:1;stroke:none;filter:url(#filter3715)" /></g><rect
       ry="11.79465"
       rx="11.79465"
       y="108.77834"
       x="-230.77446"
       height="131.49466"
       width="176.925"
       id="rect2902"
       style="fill:none;fill-opacity:1;stroke:none;display:inline" /><rect
       ry="11.79465"
       rx="11.79465"
       y="5.2196617"
       x="-11.328995"
       height="131.49466"
       width="176.925"
       id="rect2902-5"
       style="fill:none;stroke:none;display:inline" /><rect
       ry="11.79465"
       rx="11.79465"
       y="8.4328671"
       x="7.7040138"
       height="131.49466"
       width="176.925"
       id="rect2902-1"
       style="fill:none;fill-opacity:1;stroke:none;display:inline" /><rect
       ry="11.79465"
       rx="11.79465"
       y="7.0186663"
       x="8.41113"
       height="131.49466"
       width="176.925"
       id="rect2902-6"
       style="fill:#ffffff;fill-opacity:1;stroke:none;display:inline" /></g><g
     inkscape:groupmode="layer"
     id="layer1"
     inkscape:label="Logo"
     style="display:inline;opacity:0.35185185"><g
       id="g5226"
       transform="matrix(1.2453766,0,0,1.2453766,438.28823,-111.42056)"
       clip-path="url(#clipPath4033)"><path
         id="path4485-6-8"
         style="fill:#00adef;fill-opacity:1;fill-rule:nonzero;stroke:none"
         d="m -213.27657,151.98317 c -11.56743,2.21206 -22.73664,-5.37021 -24.94169,-16.93775 -2.21896,-11.56033 5.36331,-22.72952 16.93064,-24.94859 11.56043,-2.21195 22.72964,5.37032 24.9417,16.93774 2.21196,11.56044 -5.36332,22.72954 -16.93065,24.9486"
         inkscape:connector-curvature="0" /><path
         id="path4487-5-7"
         style="fill:#80cc28;fill-opacity:1;fill-rule:nonzero;stroke:none"
         d="m -277.79708,207.74029 c -11.56043,2.21196 -22.72964,-5.37031 -24.9416,-16.93074 -2.21206,-11.56743 5.37022,-22.73663 16.93064,-24.94859 11.56744,-2.21206 22.73663,5.37021 24.94859,16.93063 2.21206,11.56743 -5.3702,22.73664 -16.93763,24.9487"
         inkscape:connector-curvature="0" /><path
         id="path4489-5-8"
         style="fill:#f1511b;fill-opacity:1;fill-rule:nonzero;stroke:none"
         d="m -293.82074,123.98164 c -11.56568,2.21204 -22.73663,-5.3702 -24.94869,-16.93763 -2.21195,-11.560442 5.37031,-22.729641 16.93064,-24.948601 11.56743,-2.21206 22.73664,5.370216 24.9487,16.937647 2.21206,11.567434 -5.37022,22.736624 -16.93065,24.948584"
         inkscape:connector-curvature="0" /><path
         id="path4491-72-2"
         style="fill:#fbbc09;fill-opacity:1;fill-rule:nonzero;stroke:none"
         d="m -261.67865,161.23864 c -11.56034,2.21895 -22.72954,-5.36331 -24.9416,-16.93074 -2.21906,-11.56733 5.36332,-22.72954 16.93064,-24.9486 11.56568,-2.21204 22.73661,5.36846 24.94867,16.9359 2.21206,11.56743 -5.37028,22.73138 -16.93771,24.94344"
         inkscape:connector-curvature="0" /><path
         id="path4493-9-7"
         style="fill:#00adef;fill-opacity:1;fill-rule:nonzero;stroke:none"
         d="m -286.23745,163.64667 c 1.35759,-0.25948 2.73611,-0.40376 4.10242,-0.42364 2.41951,-0.0352 4.76215,0.29995 6.98517,0.9518 l 0.68339,-1.9785 c -7.26745,-2.91624 -12.82233,-9.3553 -14.37692,-17.46588 -1.17649,-6.17728 0.11988,-12.45002 3.66096,-17.66177 0.96271,-1.42262 2.06564,-2.70904 3.27889,-3.86933 l -1.38462,-1.59845 c -2.91854,2.29799 -6.36019,3.87915 -10.11013,4.59689 -1.34887,0.25759 -2.73438,0.40198 -4.10246,0.42188 -4.0115,0.0584 -7.83128,-0.89748 -11.19366,-2.64739 4.38519,6.74479 7.56606,14.42225 9.17013,22.80685 1.6061,8.4038 1.48051,16.73131 -0.11245,24.6287 3.34682,-3.8913 7.98111,-6.72694 13.39928,-7.76116"
         inkscape:connector-curvature="0" /><path
         id="path4495-5-5"
         style="fill:#80cc28;fill-opacity:1;fill-rule:nonzero;stroke:none"
         d="m -274.67396,98.610605 c 1.18347,6.175425 -0.1129,12.448165 -3.65395,17.661675 -0.95584,1.41376 -2.05185,2.69483 -3.2582,3.84801 l 1.38996,1.60537 c 2.91338,-2.29091 6.34115,-3.86486 10.08409,-4.58249 1.34885,-0.25935 2.7275,-0.3949 4.10257,-0.4149 11.00758,-0.16012 20.56304,7.27415 23.19824,17.85727 l 2.16029,-0.41289 c -0.7731,-5.75093 0.57786,-11.51877 3.87051,-16.36644 1.83297,-2.70565 4.15912,-4.94777 6.82738,-6.64717 -17.10179,0.91195 -33.36308,-5.1124 -45.62538,-15.905446 0.37971,1.082871 0.6829,2.198348 0.90449,3.357011"
         inkscape:connector-curvature="0" /><path
         id="path4497-2-8"
         style="fill:#f1511b;fill-opacity:1;fill-rule:nonzero;stroke:none"
         d="m -240.24254,136.38724 -2.13402,0.41425 c 0.89209,5.8717 -0.44286,11.77754 -3.8092,16.73303 -3.53923,5.21872 -8.88795,8.74193 -15.06338,9.92541 -1.35759,0.25947 -2.73623,0.395 -4.09556,0.41478 l -0.007,1.1e-4 c -2.4195,0.0352 -4.76215,-0.29995 -6.97989,-0.95012 l -0.68854,1.98557 c 7.26733,2.9075 12.82223,9.3483 14.37681,17.45889 0.22138,1.14466 0.35367,2.29937 0.40525,3.43952 7.40886,-14.55085 20.28856,-26.15233 36.5123,-31.61156 -9.03478,-1.71289 -16.37933,-8.60537 -18.51677,-17.80987"
         inkscape:connector-curvature="0" /></g></g><g
     inkscape:groupmode="layer"
     id="layer2"
     inkscape:label="Texte"
     style="display:inline"><g
       id="g4071"
       transform="matrix(1.3718337,0,0,1.3718337,-103.31459,-168.92085)"><path
         inkscape:connector-curvature="0"
         d="m 104.3835,168.17052 -0.73756,0 c -0.16513,0 -0.29815,-0.13303 -0.29815,-0.3009 l 0,-8.92329 c 0,-0.0285 0,-0.0468 -0.0174,-0.0468 -0.0184,0 -0.0184,0 -0.0285,0.0294 l -2.15399,4.45385 c -0.15045,0.30089 -0.3009,0.44125 -0.67335,0.44125 l -0.69537,0 c -0.376122,0 -0.526575,-0.14036 -0.677022,-0.44125 l -2.150327,-4.45385 c -0.01836,-0.0294 -0.01836,-0.0294 -0.03213,-0.0294 -0.01469,0 -0.01469,0.0184 -0.01469,0.0468 l 0,8.92329 c 0,0.16787 -0.135771,0.3009 -0.300899,0.3009 l -0.738482,0 c -0.16421,0 -0.3009,-0.13303 -0.3009,-0.3009 l 0,-10.44246 c 0,-0.24402 0.193566,-0.43759 0.437589,-0.43759 l 0.977916,0 c 0.268789,0 0.390804,0.0578 0.47979,0.25503 l 2.484242,5.16023 c 0.06052,0.13943 0.107333,0.16421 0.182563,0.16421 0.0752,0 0.11834,-0.0248 0.17889,-0.16421 l 2.48333,-5.16023 c 0.0899,-0.19723 0.21191,-0.25503 0.4807,-0.25503 l 0.97791,0 c 0.24036,0 0.43759,0.19357 0.43759,0.43759 l 0,10.44246 c 0,0.16787 -0.13669,0.3009 -0.30181,0.3009"
         style="fill:#110b09;fill-opacity:1;fill-rule:nonzero;stroke:none"
         id="path4417-01-4" /><path
         inkscape:connector-curvature="0"
         d="m 108.05667,168.17052 -0.72381,0 c -0.16421,0 -0.3009,-0.13303 -0.3009,-0.3009 l 0,-7.67291 c 0,-0.16788 0.13669,-0.30457 0.3009,-0.30457 l 0.72381,0 c 0.16512,0 0.3009,0.13669 0.3009,0.30457 l 0,7.67291 c 0,0.16787 -0.13578,0.3009 -0.3009,0.3009 z m 0.0294,-9.60031 -0.76692,0 c -0.16513,0 -0.30182,-0.13578 -0.30182,-0.3009 l 0,-1.20451 c 0,-0.16421 0.13669,-0.3009 0.30182,-0.3009 l 0.76692,0 c 0.16421,0 0.3009,0.13669 0.3009,0.3009 l 0,1.20451 c 0,0.16512 -0.13669,0.3009 -0.3009,0.3009"
         style="fill:#110b09;fill-opacity:1;fill-rule:nonzero;stroke:none"
         id="path4419-54-2" /><path
         inkscape:connector-curvature="0"
         d="m 115.39932,168.10905 c -0.49813,0.0899 -1.17516,0.16513 -1.88153,0.16513 -2.04575,0 -3.20347,-1.44395 -3.20347,-3.65482 l 0,-1.17607 c 0,-2.21087 1.14305,-3.65481 3.20347,-3.65481 0.69536,0 1.3834,0.0752 1.88153,0.16513 0.24035,0.0468 0.3009,0.122 0.3009,0.333 l 0,0.54125 c 0,0.15045 -0.11835,0.22568 -0.25778,0.22568 l -0.0569,0 c -0.66327,-0.0752 -1.12929,-0.10734 -1.86778,-0.10734 -1.20359,0 -1.88061,0.79903 -1.88061,2.49709 l 0,1.17607 c 0,1.6843 0.66234,2.49709 1.88061,2.49709 0.73849,0 1.20451,-0.0321 1.86778,-0.10733 l 0.0569,0 c 0.13943,0 0.25778,0.0752 0.25778,0.22934 l 0,0.54125 c 0,0.19357 -0.0605,0.28347 -0.3009,0.32934"
         style="fill:#110b09;fill-opacity:1;fill-rule:nonzero;stroke:none"
         id="path4421-5-5" /><path
         inkscape:connector-curvature="0"
         d="m 120.78889,160.93152 c -0.69537,0 -1.32561,0.17981 -2.07786,0.63116 l 0,6.30694 c 0,0.15044 -0.13669,0.3009 -0.30181,0.3009 l -0.73757,0 c -0.15045,0 -0.28713,-0.13303 -0.28713,-0.3009 l 0,-7.67291 c 0,-0.16788 0.122,-0.30457 0.28713,-0.30457 l 0.70913,0 c 0.16513,0 0.28714,0.13669 0.28714,0.30457 l 0,0.3119 c 0.74857,-0.5229 1.44028,-0.72013 2.12097,-0.72013 0.20824,0 0.31557,0.0899 0.31557,0.27246 l 0,0.61647 c 0,0.16513 -0.10733,0.25411 -0.31557,0.25411"
         style="fill:#110b09;fill-opacity:1;fill-rule:nonzero;stroke:none"
         id="path4423-3-1" /><path
         inkscape:connector-curvature="0"
         d="m 127.6334,163.46164 c 0,-1.53752 -0.61647,-2.51544 -2.03198,-2.51544 -1.39716,0 -2.0173,0.96416 -2.0173,2.51544 l 0,1.14305 c 0,1.53384 0.60547,2.51176 2.0173,2.51176 1.40175,0 2.03198,-0.95957 2.03198,-2.51176 l 0,-1.14305 z m -2.03198,4.81254 c -2.21087,0 -3.33924,-1.45863 -3.33924,-3.66949 l 0,-1.14305 c 0,-2.21454 1.12837,-3.67316 3.33924,-3.67316 2.21454,0 3.35759,1.45862 3.35759,3.67316 l 0,1.14305 c 0,2.21086 -1.14305,3.66949 -3.35759,3.66949"
         style="fill:#110b09;fill-opacity:1;fill-rule:nonzero;stroke:none"
         id="path4425-5-6" /><path
         inkscape:connector-curvature="0"
         d="m 133.15966,168.27418 c -0.5596,0 -1.64118,-0.0468 -2.37967,-0.22568 -0.19723,-0.0468 -0.31557,-0.13577 -0.31557,-0.3009 l 0,-0.52657 c 0,-0.13669 0.11834,-0.22567 0.27245,-0.22567 l 0.0568,0 c 0.72473,0.089 1.82099,0.16788 2.36591,0.16788 0.97792,0 1.48706,-0.25412 1.48706,-1.07149 0,-0.45135 -0.26879,-0.73482 -1.12928,-1.24671 l -1.51917,-0.90361 c -0.91737,-0.55868 -1.53385,-1.2036 -1.53385,-2.14941 0,-1.56962 1.17148,-2.00354 2.72368,-2.00354 0.84215,0 1.63751,0.0752 2.34664,0.19723 0.19356,0.0285 0.28714,0.13302 0.28714,0.3009 l 0,0.49446 c 0,0.17889 -0.10733,0.25504 -0.25778,0.25504 l -0.0431,0 c -0.52657,-0.0431 -1.49073,-0.11835 -2.33288,-0.11835 -0.84215,0 -1.40175,0.10367 -1.40175,0.87426 0,0.44768 0.34769,0.7339 1.03939,1.13938 l 1.49073,0.8926 c 1.24762,0.7339 1.65586,1.38248 1.65586,2.26775 0,1.53384 -1.12929,2.18243 -2.81267,2.18243"
         style="fill:#110b09;fill-opacity:1;fill-rule:nonzero;stroke:none"
         id="path4427-90-2" /><path
         inkscape:connector-curvature="0"
         d="m 142.84895,163.46164 c 0,-1.53752 -0.61647,-2.51544 -2.03198,-2.51544 -1.39716,0 -2.0173,0.96416 -2.0173,2.51544 l 0,1.14305 c 0,1.53384 0.60547,2.51176 2.0173,2.51176 1.40175,0 2.03198,-0.95957 2.03198,-2.51176 l 0,-1.14305 z m -2.03198,4.81254 c -2.21087,0 -3.33924,-1.45863 -3.33924,-3.66949 l 0,-1.14305 c 0,-2.21454 1.12837,-3.67316 3.33924,-3.67316 2.21087,0 3.35392,1.45862 3.35392,3.67316 l 0,1.14305 c 0,2.21086 -1.14305,3.66949 -3.35392,3.66949"
         style="fill:#110b09;fill-opacity:1;fill-rule:nonzero;stroke:none"
         id="path4429-4-2" /><path
         inkscape:connector-curvature="0"
         d="m 150.01272,157.77118 -0.72381,0 c -0.70638,0 -0.91737,0.21099 -0.91737,1.03938 l 0,1.08158 1.57971,0 c 0.16513,0 0.28714,0.12201 0.28714,0.27246 l 0,0.58436 c 0,0.15046 -0.12201,0.25779 -0.28714,0.25779 l -1.57971,0 0,6.86287 c 0,0.15044 -0.13669,0.3009 -0.28714,0.3009 l -0.73481,0 c -0.16421,0 -0.3009,-0.15046 -0.3009,-0.3009 l 0,-6.86287 -1.4623,-0.16421 c -0.16421,-0.0147 -0.28622,-0.12201 -0.28622,-0.27246 l 0,-0.40548 c 0,-0.15045 0.12201,-0.27246 0.28622,-0.27246 l 1.4623,0 0,-1.08158 c 0,-1.61275 0.7816,-2.09345 2.10353,-2.09345 0.40824,0 0.64859,0.0468 0.84215,0.0899 0.1688,0.0468 0.28714,0.10733 0.28714,0.24035 l 0,0.49813 c 0,0.16421 -0.10458,0.22568 -0.26879,0.22568"
         style="fill:#110b09;fill-opacity:1;fill-rule:nonzero;stroke:none"
         id="path4431-1-3" /><path
         inkscape:connector-curvature="0"
         d="m 155.80685,168.19896 c -0.3009,0.0468 -0.6917,0.0752 -0.98159,0.0752 -1.3834,0 -2.04299,-0.36145 -2.04299,-2.0173 l 0,-5.25013 -1.4623,-0.16421 c -0.16421,-0.0147 -0.28621,-0.10825 -0.28621,-0.27246 l 0,-0.40548 c 0,-0.16421 0.122,-0.27246 0.28621,-0.27246 l 1.4623,0 0,-1.47238 c 0,-0.15045 0.10366,-0.27246 0.26879,-0.3009 l 0.7816,-0.12201 0.0496,0 c 0.11467,0 0.22292,0.10366 0.22292,0.25411 l 0,1.64118 1.62284,0 c 0.16879,0 0.3009,0.13669 0.3009,0.30457 l 0,0.50914 c 0,0.16513 -0.13211,0.3009 -0.3009,0.3009 l -1.62284,0 0,5.25013 c 0,0.82746 0.211,0.94947 0.8128,0.94947 l 0.84215,0 c 0.21191,0 0.31557,0.0605 0.31557,0.21192 l 0,0.52657 c 0,0.13577 -0.0752,0.22568 -0.26879,0.25412"
         style="fill:#110b09;fill-opacity:1;fill-rule:nonzero;stroke:none"
         id="path4433-9-5" /><path
         inkscape:connector-curvature="0"
         d="m 164.82423,164.31847 -2.99614,0 c -0.16512,0 -0.28622,-0.0899 -0.28622,-0.25871 l 0,-0.58344 c 0,-0.15046 0.1211,-0.27246 0.28622,-0.27246 l 2.99614,0 c 0.16512,0 0.28622,0.10366 0.28622,0.27246 l 0,0.58344 c 0,0.15046 -0.1211,0.25871 -0.28622,0.25871"
         style="fill:#110b09;fill-opacity:1;fill-rule:nonzero;stroke:none"
         id="path4451-42-4" /><path
         inkscape:connector-curvature="0"
         d="m 171.97332,168.17052 -0.83114,0 c -0.1477,0 -0.26879,-0.13303 -0.26879,-0.3009 l 0,-10.59291 c 0,-0.15412 0.10366,-0.28714 0.26879,-0.28714 l 0.83114,0 c 0.15044,0 0.26879,0.12201 0.26879,0.28714 l 0,10.59291 c 0,0.15044 -0.10458,0.3009 -0.26879,0.3009"
         style="fill:#110b09;fill-opacity:1;fill-rule:nonzero;stroke:none"
         id="path4453-3-5" /><path
         inkscape:connector-curvature="0"
         d="m 180.62323,168.17052 -0.72381,0 c -0.16054,0 -0.29723,-0.13303 -0.29723,-0.3009 l 0,-4.9529 c 0,-1.51917 -0.5119,-1.9852 -1.65586,-1.9852 -0.63024,0 -1.33936,0.24036 -2.03106,0.58437 l 0,6.35373 c 0,0.15044 -0.13669,0.3009 -0.3009,0.3009 l -0.73849,0 c -0.15044,0 -0.28713,-0.13303 -0.28713,-0.3009 l 0,-7.67291 c 0,-0.16788 0.12201,-0.30457 0.28713,-0.30457 l 0.75226,0 c 0.16512,0 0.28713,0.13669 0.28713,0.30457 l 0,0.28347 c 0.82747,-0.46603 1.50449,-0.6917 2.39342,-0.6917 1.80264,0 2.61635,1.12928 2.61635,3.12824 l 0,4.9529 c 0,0.16787 -0.13668,0.3009 -0.30181,0.3009"
         style="fill:#110b09;fill-opacity:1;fill-rule:nonzero;stroke:none"
         id="path4455-7-7" /><path
         inkscape:connector-curvature="0"
         d="m 186.37148,160.93152 c -0.68803,0 -1.32193,0.17981 -2.07509,0.63116 l 0,6.30694 c 0,0.15044 -0.13578,0.3009 -0.3009,0.3009 l -0.73482,0 c -0.1532,0 -0.28622,-0.13303 -0.28622,-0.3009 l 0,-7.67291 c 0,-0.16788 0.11834,-0.30457 0.28622,-0.30457 l 0.70638,0 c 0.16513,0 0.28714,0.13669 0.28714,0.30457 l 0,0.3119 c 0.74857,-0.5229 1.44027,-0.72013 2.11729,-0.72013 0.21192,0 0.31925,0.0899 0.31925,0.27246 l 0,0.61647 c 0,0.16513 -0.10733,0.25411 -0.31925,0.25411"
         style="fill:#110b09;fill-opacity:1;fill-rule:nonzero;stroke:none"
         id="path4457-26-9" /><path
         inkscape:connector-curvature="0"
         d="m 189.30983,168.17052 -0.72381,0 c -0.16512,0 -0.29722,-0.13303 -0.29722,-0.3009 l 0,-7.67291 c 0,-0.16788 0.1321,-0.30457 0.29722,-0.30457 l 0.72381,0 c 0.16513,0 0.29723,0.13669 0.29723,0.30457 l 0,7.67291 c 0,0.16787 -0.1321,0.3009 -0.29723,0.3009 z m 0.0285,-9.60031 -0.76601,0 c -0.16879,0 -0.30181,-0.13578 -0.30181,-0.3009 l 0,-1.20451 c 0,-0.16421 0.13302,-0.3009 0.30181,-0.3009 l 0.76601,0 c 0.16513,0 0.29815,0.13669 0.29815,0.3009 l 0,1.20451 c 0,0.16512 -0.13302,0.3009 -0.29815,0.3009"
         style="fill:#110b09;fill-opacity:1;fill-rule:nonzero;stroke:none"
         id="path4459-4-8" /><path
         inkscape:connector-curvature="0"
         d="m 196.27636,164.16801 -1.1146,0 c -1.82008,0 -2.30078,0.40457 -2.30078,1.47239 l 0,0.18256 c 0,1.08616 0.51282,1.36872 1.3834,1.36872 0.6917,0 1.30817,-0.211 2.03198,-0.6018 l 0,-2.42187 z m 1.02103,4.00251 -0.69169,0 c -0.16421,0 -0.3009,-0.13303 -0.3009,-0.3009 l 0,-0.33026 c -0.7238,0.41924 -1.47238,0.73482 -2.3182,0.73482 -1.27606,0 -2.45122,-0.55868 -2.45122,-2.43655 l 0,-0.17888 c 0,-1.62742 0.94949,-2.44113 3.62638,-2.44113 l 1.1146,0 0,-0.6018 c 0,-1.26506 -0.43759,-1.69806 -1.60907,-1.69806 -0.97792,0 -1.70173,0.0605 -2.30444,0.11835 l -0.0752,0 c -0.13577,0 -0.27245,-0.0431 -0.27245,-0.24036 l 0,-0.52382 c 0,-0.16788 0.10458,-0.25778 0.31924,-0.28622 0.6128,-0.10733 1.30817,-0.19723 2.33288,-0.19723 2.08885,0 2.931,1.05406 2.931,2.82734 l 0,5.2538 c 0,0.16787 -0.13577,0.3009 -0.3009,0.3009"
         style="fill:#110b09;fill-opacity:1;fill-rule:nonzero;stroke:none"
         id="path4461-8-8" /><path
         inkscape:connector-curvature="0"
         d="m 95.44279,185.91251 c -0.344019,0 -0.555014,-0.0184 -0.964158,-0.0614 -0.135772,-0.0138 -0.222011,-0.11834 -0.222011,-0.25411 l 0,-1.53385 c 0,-0.10366 0.05783,-0.211 0.165128,-0.211 l 0.74858,0 c 0.347684,0 0.394469,-0.16512 0.394469,-0.54125 l 0,-10.98737 c 0,-0.16513 0.13669,-0.28622 0.297227,-0.28622 l 1.975108,0 c 0.16421,0 0.300893,0.12109 0.300893,0.28622 l 0,10.98737 c 0,2.04574 -1.175153,2.60168 -2.695236,2.60168"
         style="fill:#110b09;fill-opacity:1;fill-rule:nonzero;stroke:none"
         id="path4463-97-3" /><path
         inkscape:connector-curvature="0"
         d="m 106.30815,176.73511 c 0,-1.80631 -0.6018,-2.57323 -1.86685,-2.57323 -1.26139,0 -1.8531,0.76692 -1.8531,2.57323 l 0,1.78796 c 0,1.80631 0.59171,2.5769 1.8531,2.5769 1.26505,0 1.86685,-0.77059 1.86685,-2.5769 l 0,-1.78796 z m -1.86685,6.61885 c -2.47966,0 -4.454764,-1.34029 -4.454764,-4.83089 l 0,-1.78796 c 0,-3.49428 1.975104,-4.83089 4.454764,-4.83089 2.48333,0 4.45384,1.33661 4.45384,4.83089 l 0,1.78796 c 0,3.4906 -1.97051,4.83089 -4.45384,4.83089"
         style="fill:#110b09;fill-opacity:1;fill-rule:nonzero;stroke:none"
         id="path4465-4-3" /><path
         inkscape:connector-curvature="0"
         d="m 113.03433,183.21727 -2.01363,0 c -0.1688,0 -0.27246,-0.13577 -0.27246,-0.29723 l 0,-10.59658 c 0,-0.16512 0.10366,-0.28622 0.27246,-0.28622 l 2.01363,0 c 0.1688,0 0.28714,0.1211 0.28714,0.28622 l 0,10.59658 c 0,0.16146 -0.11834,0.29723 -0.28714,0.29723"
         style="fill:#110b09;fill-opacity:1;fill-rule:nonzero;stroke:none"
         id="path4467-9-1" /><path
         inkscape:connector-curvature="0"
         d="m 123.70246,183.21727 -1.4733,0 c -0.31466,0 -0.544,-0.0569 -0.78435,-0.46603 l -3.42915,-5.92715 c -0.0578,-0.089 -0.0899,-0.12109 -0.13668,-0.12109 -0.0431,0 -0.0752,0.0321 -0.0752,0.12109 l 0,6.09595 c 0,0.16146 -0.1321,0.29723 -0.3009,0.29723 l -1.77328,0 c -0.16513,0 -0.30181,-0.13577 -0.30181,-0.29723 l 0,-10.30944 c 0,-0.31558 0.2587,-0.57336 0.5706,-0.57336 l 1.52284,0 c 0.3009,0 0.45135,0.15045 0.63024,0.46603 l 3.56949,6.19869 c 0.0569,0.0936 0.0752,0.12201 0.11835,0.12201 0.0284,0 0.0752,-0.0285 0.0752,-0.1321 l 0,-6.36841 c 0,-0.16512 0.13577,-0.28622 0.3009,-0.28622 l 1.77695,0 c 0.16513,0 0.3009,0.1211 0.3009,0.28622 l 0,10.32412 c 0,0.31557 -0.27154,0.56969 -0.59079,0.56969"
         style="fill:#110b09;fill-opacity:1;fill-rule:nonzero;stroke:none"
         id="path4469-09-2" /><path
         inkscape:connector-curvature="0"
         d="m 133.48533,174.16188 -2.43655,0 0,8.75816 c 0,0.16146 -0.13301,0.29723 -0.3009,0.29723 l -1.97143,0 c -0.16421,0 -0.3009,-0.13577 -0.3009,-0.29723 l 0,-8.75816 -2.45122,0 c -0.16788,0 -0.30457,-0.12202 -0.30457,-0.28622 l 0,-1.5522 c 0,-0.16512 0.13669,-0.28622 0.30457,-0.28622 l 7.461,0 c 0.16879,0 0.31924,0.1211 0.31924,0.28622 l 0,1.5522 c 0,0.1642 -0.15045,0.28622 -0.31924,0.28622"
         style="fill:#110b09;fill-opacity:1;fill-rule:nonzero;stroke:none"
         id="path4471-6-0" /><path
         inkscape:connector-curvature="0"
         d="m 145.58639,183.09892 c -0.31465,0.10734 -1.18891,0.25504 -2.24297,0.25504 -2.2861,0 -4.45385,-1.20451 -4.45385,-4.78411 l 0,-1.8962 c 0,-3.58326 2.16775,-4.76943 4.45385,-4.76943 1.05406,0 1.92832,0.14678 2.24297,0.25412 0.21192,0.0578 0.33026,0.12201 0.33026,0.33025 l 0,1.46229 c 0,0.17889 -0.0899,0.3009 -0.28714,0.3009 l -0.0431,0 c -0.57336,-0.0468 -1.40083,-0.12201 -2.2283,-0.12201 -1.03938,0 -1.8641,0.54125 -1.8641,2.54388 l 0,1.8962 c 0,2.00263 0.82472,2.54021 1.8641,2.54021 0.82747,0 1.65494,-0.0716 2.2283,-0.11834 l 0.0431,0 c 0.19723,0 0.28714,0.11834 0.28714,0.30181 l 0,1.45771 c 0,0.21191 -0.11834,0.28714 -0.33026,0.34768"
         style="fill:#110b09;fill-opacity:1;fill-rule:nonzero;stroke:none"
         id="path4473-7-9" /><path
         inkscape:connector-curvature="0"
         d="m 154.11888,183.16039 c -0.52657,0.0716 -1.2935,0.19357 -2.92,0.19357 -1.93932,0 -3.65573,-0.49447 -3.65573,-3.2365 l 0,-4.9951 c 0,-2.73743 1.73108,-3.21814 3.66949,-3.21814 1.62742,0 2.37967,0.11834 2.90624,0.19357 0.21191,0.0321 0.3009,0.10733 0.3009,0.3009 l 0,1.40174 c 0,0.16421 -0.13577,0.29723 -0.3009,0.29723 l -3.05669,0 c -0.70546,0 -0.96049,0.2431 -0.96049,1.0247 l 0,1.36873 3.89884,0 c 0.16513,0 0.29815,0.13668 0.29815,0.30089 l 0,1.43386 c 0,0.16421 -0.13302,0.29723 -0.29815,0.29723 l -3.89884,0 0,1.59439 c 0,0.78528 0.25503,1.02471 0.96049,1.02471 l 3.05669,0 c 0.16513,0 0.3009,0.13669 0.3009,0.30182 l 0,1.39715 c 0,0.19724 -0.089,0.28714 -0.3009,0.31925"
         style="fill:#110b09;fill-opacity:1;fill-rule:nonzero;stroke:none"
         id="path4475-5-1" /><path
         inkscape:connector-curvature="0"
         d="m 164.59344,183.21727 -1.47605,0 c -0.31558,0 -0.54492,-0.0569 -0.7816,-0.46603 l -3.43281,-5.92715 c -0.0569,-0.089 -0.0899,-0.12109 -0.13577,-0.12109 -0.0431,0 -0.0752,0.0321 -0.0752,0.12109 l 0,6.09595 c 0,0.16146 -0.13303,0.29723 -0.30182,0.29723 l -1.77328,0 c -0.16513,0 -0.3009,-0.13577 -0.3009,-0.29723 l 0,-10.30944 c 0,-0.31558 0.25411,-0.57336 0.56969,-0.57336 l 1.52284,0 c 0.3009,0 0.45134,0.15045 0.63115,0.46603 l 3.56858,6.19869 c 0.0578,0.0936 0.0752,0.12201 0.11834,0.12201 0.0285,0 0.0752,-0.0285 0.0752,-0.1321 l 0,-6.36841 c 0,-0.16512 0.13669,-0.28622 0.3009,-0.28622 l 1.7742,0 c 0.16788,0 0.30457,0.1211 0.30457,0.28622 l 0,10.32412 c 0,0.31557 -0.27246,0.56969 -0.58804,0.56969"
         style="fill:#110b09;fill-opacity:1;fill-rule:nonzero;stroke:none"
         id="path4477-1-4" /><path
         inkscape:connector-curvature="0"
         d="m 174.37631,174.16188 -2.44022,0 0,8.75816 c 0,0.16146 -0.13577,0.29723 -0.3009,0.29723 l -1.97051,0 c -0.16513,0 -0.30181,-0.13577 -0.30181,-0.29723 l 0,-8.75816 -2.4503,0 c -0.16513,0 -0.30182,-0.12202 -0.30182,-0.28622 l 0,-1.5522 c 0,-0.16512 0.13669,-0.28622 0.30182,-0.28622 l 7.46374,0 c 0.16512,0 0.31557,0.1211 0.31557,0.28622 l 0,1.5522 c 0,0.1642 -0.15045,0.28622 -0.31557,0.28622"
         style="fill:#110b09;fill-opacity:1;fill-rule:nonzero;stroke:none"
         id="path4479-7-4" /><path
         inkscape:connector-curvature="0"
         d="m 181.82262,175.42326 c 0,-0.91737 -0.70546,-1.34028 -1.97052,-1.34028 -0.21099,0 -0.99259,0.0321 -1.17515,0.0468 l 0,2.8879 c 0.16788,0.0147 0.90637,0.033 1.07149,0.033 1.57972,0 2.07418,-0.40915 2.07418,-1.43018 l 0,-0.19724 z m 2.70992,7.79401 -2.30077,0 c -0.16512,0 -0.22567,-0.14678 -0.3009,-0.29723 l -2.01822,-3.80894 -0.16421,0.0138 c -0.31924,0 -0.78527,-0.0285 -1.07149,-0.0285 l 0,3.82362 c 0,0.16145 -0.13302,0.29722 -0.3009,0.29722 l -1.95309,0 c -0.16511,0 -0.30456,-0.13577 -0.30456,-0.29722 l 0,-10.09845 c 0,-0.51189 0.21467,-0.64858 0.68069,-0.7238 0.6917,-0.10366 1.97051,-0.19357 3.05301,-0.19357 2.55856,0 4.52908,0.85683 4.52908,3.51905 l 0,0.19723 c 0,1.59439 -0.84124,2.57323 -1.94208,3.0099 l 2.276,4.24285 c 0.0285,0.0578 0.0431,0.12201 0.0431,0.16513 0,0.10366 -0.0614,0.17888 -0.22567,0.17888"
         style="fill:#110b09;fill-opacity:1;fill-rule:nonzero;stroke:none"
         id="path4481-7-4" /><path
         inkscape:connector-curvature="0"
         d="m 192.88522,183.16039 c -0.52657,0.0716 -1.29349,0.19357 -2.92091,0.19357 -1.93841,0 -3.65848,-0.49447 -3.65848,-3.2365 l 0,-4.9951 c 0,-2.73743 1.73475,-3.21814 3.67683,-3.21814 1.62375,0 2.37599,0.11834 2.90256,0.19357 0.211,0.0321 0.3009,0.10733 0.3009,0.3009 l 0,1.40174 c 0,0.16421 -0.13576,0.29723 -0.3009,0.29723 l -3.05667,0 c -0.70638,0 -0.96417,0.2431 -0.96417,1.0247 l 0,1.36873 3.89884,0 c 0.16513,0 0.30456,0.13668 0.30456,0.30089 l 0,1.43386 c 0,0.16421 -0.13943,0.29723 -0.30456,0.29723 l -3.89884,0 0,1.59439 c 0,0.78528 0.25779,1.02471 0.96417,1.02471 l 3.05667,0 c 0.16514,0 0.3009,0.13669 0.3009,0.30182 l 0,1.39715 c 0,0.19724 -0.0899,0.28714 -0.3009,0.31925"
         style="fill:#110b09;fill-opacity:1;fill-rule:nonzero;stroke:none"
         id="path4483-70-9" /></g></g></svg>