<?xml version="1.0" encoding="UTF-8" standalone="no"?>
<!-- Generator: Adobe Illustrator 15.0.2, SVG Export Plug-In . SVG Version: 6.00 Build 0)  -->

<svg
   xmlns:dc="http://purl.org/dc/elements/1.1/"
   xmlns:cc="http://creativecommons.org/ns#"
   xmlns:rdf="http://www.w3.org/1999/02/22-rdf-syntax-ns#"
   xmlns:svg="http://www.w3.org/2000/svg"
   xmlns="http://www.w3.org/2000/svg"
   xmlns:xlink="http://www.w3.org/1999/xlink"
   xmlns:sodipodi="http://sodipodi.sourceforge.net/DTD/sodipodi-0.dtd"
   xmlns:inkscape="http://www.inkscape.org/namespaces/inkscape"
   version="1.1"
   id="Calque_1"
   x="0px"
   y="0px"
   width="191"
   height="106"
   viewBox="0 0 190.99999 106"
   enable-background="new 0 0 595.28 841.89"
   xml:space="preserve"
   inkscape:version="0.48.1 r9760"
   sodipodi:docname="tab5x.svg"
   inkscape:export-filename="/home/ludo/src/inria-doc-style/figuresHomemade/tab5x.pdf.png"
   inkscape:export-xdpi="87.669998"
   inkscape:export-ydpi="87.669998"><metadata
   id="metadata92"><rdf:RDF><cc:Work
       rdf:about=""><dc:format>image/svg+xml</dc:format><dc:type
         rdf:resource="http://purl.org/dc/dcmitype/StillImage" /><dc:title></dc:title></cc:Work></rdf:RDF></metadata><defs
   id="defs90"><inkscape:perspective
   sodipodi:type="inkscape:persp3d"
   inkscape:vp_x="0 : 420.94501 : 1"
   inkscape:vp_y="0 : 1000 : 0"
   inkscape:vp_z="595.28003 : 420.94501 : 1"
   inkscape:persp3d-origin="297.64001 : 280.63 : 1"
   id="perspective94" /><inkscape:perspective
   id="perspective3775"
   inkscape:persp3d-origin="0.5 : 0.33333333 : 1"
   inkscape:vp_z="1 : 0.5 : 1"
   inkscape:vp_y="0 : 1000 : 0"
   inkscape:vp_x="0 : 0.5 : 1"
   sodipodi:type="inkscape:persp3d" /><filter
   inkscape:collect="always"
   id="filter3715"
   color-interpolation-filters="sRGB"><feGaussianBlur
     inkscape:collect="always"
     stdDeviation="4.7731613"
     id="feGaussianBlur3717" /></filter>
		
		
	<radialGradient
   inkscape:collect="always"
   xlink:href="#SVGID_1_"
   id="radialGradient3064"
   gradientUnits="userSpaceOnUse"
   gradientTransform="matrix(1.5,0,0,1.5,-128.8574,-125.1348)"
   cx="275.14359"
   cy="385.86819"
   r="43.4492" />
			
			
		<radialGradient
   inkscape:collect="always"
   xlink:href="#SVGID_1_"
   id="radialGradient3245"
   gradientUnits="userSpaceOnUse"
   gradientTransform="matrix(1.5,0,0,1.5,-128.8574,-125.1348)"
   cx="275.14359"
   cy="385.86819"
   r="43.4492" /></defs><sodipodi:namedview
   pagecolor="#ffffff"
   bordercolor="#666666"
   borderopacity="1"
   objecttolerance="10"
   gridtolerance="10"
   guidetolerance="10"
   inkscape:pageopacity="0"
   inkscape:pageshadow="2"
   inkscape:window-width="1318"
   inkscape:window-height="1178"
   id="namedview88"
   showgrid="false"
   inkscape:zoom="2"
   inkscape:cx="4.4964789"
   inkscape:cy="48.30383"
   inkscape:window-x="0"
   inkscape:window-y="0"
   inkscape:window-maximized="0"
   inkscape:current-layer="g3" />
<g
   id="g3"
   transform="translate(-197.15671,-402.86532)">
	<g
   id="g4024"><rect
     style="opacity:0.7000001;fill:#000000;fill-opacity:1;stroke:none;filter:url(#filter3715)"
     id="rect2941"
     width="168.5"
     height="125.233"
     x="208.38971"
     y="413.86533"
     rx="11.233"
     ry="11.233" /></g><rect
   style="fill:#ffffff;fill-opacity:1;stroke:none"
   id="rect2902"
   width="168.5"
   height="125.233"
   x="208.38971"
   y="413.86533"
   rx="11.233"
   ry="11.233" /><polygon
   style="fill:#ffffff"
   id="polygon17"
   points="215.411,433.479 215.375,364.368 381.078,364.368 381.115,433.479 "
   transform="translate(-5.8382855,56.38632)" /><g
   id="g21"
   transform="translate(-5.8382855,56.38632)">
				
					<radialGradient
   id="SVGID_1_"
   cx="275.14359"
   cy="385.86819"
   r="43.4492"
   gradientTransform="matrix(1.5,0,0,1.5,-128.8574,-125.1348)"
   gradientUnits="userSpaceOnUse">
					<stop
   offset="0.4"
   style="stop-color:#FFCD1D"
   id="stop24" />
					<stop
   offset="0.6872"
   style="stop-color:#F08026"
   id="stop26" />
					<stop
   offset="1"
   style="stop-color:#E40A22"
   id="stop28" />
				</radialGradient>
				<path
   d="m 253.332,378.084 c 2.047,-1.234 4.155,-2.886 6.047,-4.805 1.48,-1.502 -5.031,-0.832 -6.597,0.506 -1.684,1.439 -3.417,3.03 -5.002,4.888 -0.928,1.081 3.521,0.634 5.552,-0.589 z m 58.631,16.592 c 2.045,-1.234 5.895,-4.223 7.789,-6.141 1.48,-1.504 -5.031,-0.832 -6.598,0.504 -1.688,1.441 -4.488,4.023 -6.074,5.883 -0.924,1.084 2.852,0.974 4.883,-0.246 z m 59.162,12.806 c -8.346,-5.196 -31.154,3.859 -39.807,4.893 -1.625,0.193 -2.211,-0.216 -1.828,-1.316 0.729,-2.121 3.623,-6.022 4.205,-7.366 0.549,-1.282 0.477,-5.694 -6.049,-5.694 -5.332,0 -10.221,2.477 -13.66,5.591 -3.275,2.795 -9.619,8.321 -13.527,8.321 -4.006,0 7.801,-12.218 8.455,-12.834 1.76,-1.651 -3.789,-1.246 -6.121,0.533 -0.932,0.708 -4.619,4.689 -6.948,8.545 -6.735,4.656 -13.439,5.736 -10.25,1.865 1.697,-2.061 4.567,-4.822 6.541,-7.012 2.755,-3.055 2.258,-5.064 -3.825,-5.064 -8.144,0 -9.006,0.705 -13.601,6.086 -0.853,1.001 -0.412,3.507 0.469,2.637 5.512,-5.453 5.386,-5.008 12.682,-5.008 -1.173,1.248 -3.263,2.49 -6.809,6.991 -3.16,4.014 -1.094,7.259 3.395,7.259 2.481,0 6.186,-1.164 9.574,-3.55 -0.406,2.091 0.432,3.589 3.629,3.589 3.667,0 7.894,-2.202 11.396,-4.651 -0.438,2.657 0.928,4.651 4.848,4.651 3.016,0 6.527,-1.184 10.15,-4.326 -0.02,2.4 1.674,4.309 4.83,4.309 7.686,0 34.236,-9.643 43.471,-4.074 1.159,0.694 1.108,-2.925 -1.22,-4.375 z m -55.164,5.006 c -5.039,0 5.053,-11.518 11.625,-11.518 3.935,10e-4 -6.766,11.518 -11.625,11.518 z m -43.753,-5.546 c -1.973,1.929 -6.294,5.153 -10.07,5.153 -2.793,0 2.771,-5.004 5.527,-9.039 2.629,-3.854 0.478,-5.008 -1.694,-5.008 -5.378,0 -10.63,3.774 -14.192,6.43 1.077,-1.441 2.75,-3.287 4.538,-5.645 0.989,-1.309 -4.94,-0.842 -6.457,1.158 -0.485,0.631 -1.017,1.34 -1.584,2.1 -5.148,6.184 -12.92,10.357 -16.736,10.357 -2.126,0 -2.9,-1.465 -1.576,-4.23 3.189,-6.674 14.182,-19.355 20.156,-24.908 2.712,-2.541 -5.438,-1.506 -7.308,0.371 -8.277,8.332 -16.611,17.629 -18.96,24.863 -1.299,4.002 -0.1,7.594 4.87,7.594 4.082,0 8.602,-2.021 12.439,-4.422 -0.943,1.287 -1.807,2.457 -2.499,3.4 -1.083,1.466 4.409,0.931 5.569,-0.549 4.342,-5.555 14.78,-12.393 17.688,-12.393 2.643,0 -6.466,6.826 -6.381,11.006 0.105,5.488 12.818,2.125 17.132,-3.523 0.676,-0.878 0.147,-3.304 -0.462,-2.715 z"
   id="path30"
   style="fill:url(#radialGradient3245)"
   inkscape:connector-curvature="0" />
			</g>
	
</g>
</svg>