<?xml version="1.0" encoding="UTF-8" standalone="no"?>
<!-- Generator: Adobe Illustrator 15.0.2, SVG Export Plug-In . SVG Version: 6.00 Build 0)  -->

<svg
   xmlns:dc="http://purl.org/dc/elements/1.1/"
   xmlns:cc="http://creativecommons.org/ns#"
   xmlns:rdf="http://www.w3.org/1999/02/22-rdf-syntax-ns#"
   xmlns:svg="http://www.w3.org/2000/svg"
   xmlns="http://www.w3.org/2000/svg"
   xmlns:xlink="http://www.w3.org/1999/xlink"
   xmlns:sodipodi="http://sodipodi.sourceforge.net/DTD/sodipodi-0.dtd"
   xmlns:inkscape="http://www.inkscape.org/namespaces/inkscape"
   version="1.1"
   id="Calque_1"
   x="0px"
   y="0px"
   width="191"
   height="125"
   viewBox="0 0 190.99999 125"
   enable-background="new 0 0 595.28 841.89"
   xml:space="preserve"
   inkscape:version="0.47 r22583"
   sodipodi:docname="tab6x.svg"><metadata
   id="metadata92"><rdf:RDF><cc:Work
       rdf:about=""><dc:format>image/svg+xml</dc:format><dc:type
         rdf:resource="http://purl.org/dc/dcmitype/StillImage" /><dc:title></dc:title></cc:Work></rdf:RDF></metadata><defs
   id="defs90"><inkscape:perspective
     sodipodi:type="inkscape:persp3d"
     inkscape:vp_x="0 : 420.94501 : 1"
     inkscape:vp_y="0 : 1000 : 0"
     inkscape:vp_z="595.28003 : 420.94501 : 1"
     inkscape:persp3d-origin="297.64001 : 280.63 : 1"
     id="perspective94" /><inkscape:perspective
     id="perspective3775"
     inkscape:persp3d-origin="0.5 : 0.33333333 : 1"
     inkscape:vp_z="1 : 0.5 : 1"
     inkscape:vp_y="0 : 1000 : 0"
     inkscape:vp_x="0 : 0.5 : 1"
     sodipodi:type="inkscape:persp3d" /><radialGradient
     inkscape:collect="always"
     xlink:href="#SVGID_1_"
     id="radialGradient2958"
     gradientUnits="userSpaceOnUse"
     gradientTransform="matrix(1.5,0,0,1.5,-128.8574,-125.1348)"
     cx="275.14359"
     cy="385.86819"
     r="43.4492" /><filter
     inkscape:collect="always"
     id="filter3799"
     color-interpolation-filters="sRGB"><feGaussianBlur
       inkscape:collect="always"
       stdDeviation="4.4024999"
       id="feGaussianBlur3801" /></filter><filter
     inkscape:collect="always"
     id="filter3831"><feGaussianBlur
       inkscape:collect="always"
       stdDeviation="4.7731613"
       id="feGaussianBlur3833" /></filter></defs><sodipodi:namedview
   pagecolor="#ffffff"
   bordercolor="#666666"
   borderopacity="1"
   objecttolerance="10"
   gridtolerance="10"
   guidetolerance="10"
   inkscape:pageopacity="0"
   inkscape:pageshadow="2"
   inkscape:window-width="1680"
   inkscape:window-height="986"
   id="namedview88"
   showgrid="false"
   inkscape:zoom="4"
   inkscape:cx="111.80016"
   inkscape:cy="48.30383"
   inkscape:window-x="0"
   inkscape:window-y="31"
   inkscape:window-maximized="1"
   inkscape:current-layer="g3" />
<g
   id="g3"
   transform="translate(-197.15671,-383.86532)">
	<rect
   ry="11.233"
   rx="11.233"
   y="395.09833"
   x="208.38971"
   height="125.233"
   width="168.5"
   id="rect3805"
   style="fill:#000000;fill-opacity:1;stroke:none;opacity:0.29999999999999999;filter:url(#filter3831)" /><rect
   style="fill:#ffffff;fill-opacity:1;stroke:none"
   id="rect2902"
   width="168.5"
   height="125.233"
   x="208.38971"
   y="395.09833"
   rx="11.233"
   ry="11.233" /><g
   id="g15"
   transform="translate(-5.8382855,37.386302)">
		<polygon
   points="381.078,364.368 381.115,433.479 215.411,433.479 215.375,364.368 "
   id="polygon17"
   style="fill:#ffffff" />
		<g
   id="g19">
			<g
   id="g21">
				
					<radialGradient
   id="SVGID_1_"
   cx="275.14359"
   cy="385.86819"
   r="43.4492"
   gradientTransform="matrix(1.5,0,0,1.5,-128.8574,-125.1348)"
   gradientUnits="userSpaceOnUse">
					<stop
   offset="0.4"
   style="stop-color:#FFCD1D"
   id="stop24" />
					<stop
   offset="0.6872"
   style="stop-color:#F08026"
   id="stop26" />
					<stop
   offset="1"
   style="stop-color:#E40A22"
   id="stop28" />
				</radialGradient>
				<path
   d="m 253.332,378.084 c 2.047,-1.234 4.155,-2.886 6.047,-4.805 1.48,-1.502 -5.031,-0.832 -6.597,0.506 -1.684,1.439 -3.417,3.03 -5.002,4.888 -0.928,1.081 3.521,0.634 5.552,-0.589 z m 58.631,16.592 c 2.045,-1.234 5.895,-4.223 7.789,-6.141 1.48,-1.504 -5.031,-0.832 -6.598,0.504 -1.688,1.441 -4.488,4.023 -6.074,5.883 -0.924,1.084 2.852,0.974 4.883,-0.246 z m 59.162,12.806 c -8.346,-5.196 -31.154,3.859 -39.807,4.893 -1.625,0.193 -2.211,-0.216 -1.828,-1.316 0.729,-2.121 3.623,-6.022 4.205,-7.366 0.549,-1.282 0.477,-5.694 -6.049,-5.694 -5.332,0 -10.221,2.477 -13.66,5.591 -3.275,2.795 -9.619,8.321 -13.527,8.321 -4.006,0 7.801,-12.218 8.455,-12.834 1.76,-1.651 -3.789,-1.246 -6.121,0.533 -0.932,0.708 -4.619,4.689 -6.948,8.545 -6.735,4.656 -13.439,5.736 -10.25,1.865 1.697,-2.061 4.567,-4.822 6.541,-7.012 2.755,-3.055 2.258,-5.064 -3.825,-5.064 -8.144,0 -9.006,0.705 -13.601,6.086 -0.853,1.001 -0.412,3.507 0.469,2.637 5.512,-5.453 5.386,-5.008 12.682,-5.008 -1.173,1.248 -3.263,2.49 -6.809,6.991 -3.16,4.014 -1.094,7.259 3.395,7.259 2.481,0 6.186,-1.164 9.574,-3.55 -0.406,2.091 0.432,3.589 3.629,3.589 3.667,0 7.894,-2.202 11.396,-4.651 -0.438,2.657 0.928,4.651 4.848,4.651 3.016,0 6.527,-1.184 10.15,-4.326 -0.02,2.4 1.674,4.309 4.83,4.309 7.686,0 34.236,-9.643 43.471,-4.074 1.159,0.694 1.108,-2.925 -1.22,-4.375 z m -55.164,5.006 c -5.039,0 5.053,-11.518 11.625,-11.518 3.935,10e-4 -6.766,11.518 -11.625,11.518 z m -43.753,-5.546 c -1.973,1.929 -6.294,5.153 -10.07,5.153 -2.793,0 2.771,-5.004 5.527,-9.039 2.629,-3.854 0.478,-5.008 -1.694,-5.008 -5.378,0 -10.63,3.774 -14.192,6.43 1.077,-1.441 2.75,-3.287 4.538,-5.645 0.989,-1.309 -4.94,-0.842 -6.457,1.158 -0.485,0.631 -1.017,1.34 -1.584,2.1 -5.148,6.184 -12.92,10.357 -16.736,10.357 -2.126,0 -2.9,-1.465 -1.576,-4.23 3.189,-6.674 14.182,-19.355 20.156,-24.908 2.712,-2.541 -5.438,-1.506 -7.308,0.371 -8.277,8.332 -16.611,17.629 -18.96,24.863 -1.299,4.002 -0.1,7.594 4.87,7.594 4.082,0 8.602,-2.021 12.439,-4.422 -0.943,1.287 -1.807,2.457 -2.499,3.4 -1.083,1.466 4.409,0.931 5.569,-0.549 4.342,-5.555 14.78,-12.393 17.688,-12.393 2.643,0 -6.466,6.826 -6.381,11.006 0.105,5.488 12.818,2.125 17.132,-3.523 0.676,-0.878 0.147,-3.304 -0.462,-2.715 z"
   id="path30"
   style="fill:url(#radialGradient2958)" />
			</g>
			<g
   id="g32">
				<path
   d="m 268.771,420.922 h -0.34 c -0.09,0 -0.148,0.077 -0.148,0.155 v 4.337 c 0,0.084 0.063,0.158 0.148,0.159 h 0.34 c 0.092,-10e-4 0.147,-0.084 0.148,-0.159 v -4.337 c -10e-4,-0.086 -0.068,-0.155 -0.148,-0.155 z"
   id="path34"
   style="fill:#e20718" />
				<path
   d="m 273.174,420.922 h -0.326 c -0.084,0 -0.149,0.074 -0.149,0.155 v 3.489 l -1.839,-3.5 c -0.047,-0.098 -0.111,-0.148 -0.285,-0.145 h -0.339 c -0.116,0 -0.214,0.09 -0.214,0.211 v 4.33 c 0,0.091 0.089,0.11 0.147,0.11 h 0.32 c 0.085,-10e-4 0.147,-0.073 0.147,-0.154 v -3.496 l 1.859,3.532 c 0.038,0.076 0.122,0.118 0.227,0.118 0.001,0 0.001,0 0.002,0 h 0.383 c 0.119,0 0.215,-0.097 0.215,-0.216 v -4.28 c -10e-4,-0.076 -0.059,-0.154 -0.148,-0.154 z"
   id="path36"
   style="fill:#e20718" />
				<path
   d="m 277.423,420.922 h -0.363 c -0.072,0.004 -0.124,0.06 -0.14,0.122 l -1.079,3.923 c -0.027,0.084 -0.042,0.102 -0.081,0.102 -0.046,-0.002 -0.061,-0.019 -0.088,-0.102 l -1.071,-3.924 c -0.018,-0.065 -0.076,-0.117 -0.146,-0.121 h -0.358 c -0.078,0 -0.146,0.062 -0.146,0.143 0,0.012 -0.001,0.033 0.011,0.055 l 1.136,4.002 c 0.114,0.406 0.427,0.496 0.663,0.495 0.003,0 0.006,0 0.007,0 0.24,0 0.543,-0.093 0.657,-0.495 l 1.131,-4.004 c 0.009,-0.022 0.009,-0.041 0.009,-0.053 -10e-4,-0.08 -0.063,-0.143 -0.142,-0.143 z"
   id="path38"
   style="fill:#e20718" />
				<path
   d="m 280.73,420.918 c -0.265,-0.025 -0.842,-0.039 -1.207,-0.039 -0.87,0.004 -1.348,0.348 -1.349,1.184 v 2.371 c 0.001,0.836 0.479,1.182 1.349,1.183 0.364,0 0.966,-0.007 1.205,-0.031 l -0.004,-0.036 0,0 0.006,0.036 c 0.063,-0.013 0.091,-0.071 0.093,-0.122 v -0.314 c 0,-0.057 -0.042,-0.11 -0.103,-0.11 h -1.189 c -0.65,-0.012 -0.711,-0.142 -0.722,-0.604 v -0.998 h 1.855 c 0.087,0 0.159,-0.071 0.159,-0.158 v -0.236 c 0,-0.087 -0.072,-0.158 -0.159,-0.158 h -1.855 v -0.82 c 0.01,-0.461 0.071,-0.592 0.722,-0.604 h 1.189 c 0.061,0 0.103,-0.054 0.103,-0.11 v -0.307 c -0.002,-0.055 -0.03,-0.113 -0.093,-0.127 z"
   id="path40"
   style="fill:#e20718" />
				<path
   d="m 284.876,420.922 h -0.328 c -0.084,0 -0.146,0.074 -0.146,0.155 v 3.489 l -1.841,-3.5 c -0.045,-0.098 -0.11,-0.148 -0.285,-0.145 h -0.337 c -0.117,0 -0.216,0.09 -0.216,0.211 v 4.33 c 0,0.091 0.087,0.11 0.147,0.11 h 0.32 c 0.085,-10e-4 0.149,-0.073 0.149,-0.154 v -3.493 l 1.858,3.529 c 0.037,0.074 0.122,0.118 0.227,0.118 0.001,0 0.001,0 0.001,0 h 0.383 c 0.119,0 0.214,-0.097 0.214,-0.214 v -4.282 c 0,-0.077 -0.057,-0.154 -0.146,-0.154 z"
   id="path42"
   style="fill:#e20718" />
				<path
   d="m 288.713,420.922 h -2.962 c -0.084,0 -0.159,0.064 -0.161,0.148 v 0.273 c 0,0.092 0.084,0.133 0.161,0.133 h 1.163 v 3.938 c 0,0.084 0.063,0.159 0.149,0.159 h 0.338 c 0.093,-10e-4 0.147,-0.083 0.147,-0.159 v -3.938 h 1.165 c 0.08,0 0.152,-0.049 0.154,-0.133 v -0.273 c -0.002,-0.086 -0.071,-0.148 -0.154,-0.148 z"
   id="path44"
   style="fill:#e20718" />
				<path
   d="m 292.033,420.918 c -0.264,-0.025 -0.843,-0.039 -1.207,-0.039 -0.871,0.004 -1.348,0.346 -1.348,1.184 v 2.372 c 0,0.835 0.477,1.181 1.348,1.182 0.364,0 0.966,-0.006 1.205,-0.031 l -0.004,-0.036 0,0 0.007,0.036 c 0.063,-0.013 0.091,-0.071 0.091,-0.122 v -0.314 c 0,-0.057 -0.039,-0.11 -0.104,-0.11 h -1.189 c -0.647,-0.012 -0.709,-0.142 -0.72,-0.604 v -0.999 h 1.855 c 0.086,0 0.158,-0.071 0.158,-0.158 v -0.234 c 0,-0.089 -0.071,-0.16 -0.158,-0.16 h -1.855 v -0.82 c 0.01,-0.461 0.073,-0.592 0.72,-0.604 h 1.189 c 0.063,0 0.104,-0.055 0.104,-0.111 v -0.307 c -10e-4,-0.053 -0.03,-0.111 -0.092,-0.125 z"
   id="path46"
   style="fill:#e20718" />
				<path
   d="m 296.082,420.922 h -0.334 c -0.088,0 -0.151,0.074 -0.151,0.156 v 2.795 c -0.009,0.796 -0.231,1.184 -0.976,1.189 -0.746,-0.006 -0.967,-0.398 -0.974,-1.189 v -2.795 c 0,-0.089 -0.073,-0.156 -0.154,-0.156 h -0.332 c -0.089,0 -0.154,0.074 -0.154,0.156 v 2.795 c 10e-4,1.188 0.602,1.742 1.615,1.743 1.014,-10e-4 1.611,-0.555 1.612,-1.743 v -2.795 c -10e-4,-0.088 -0.074,-0.156 -0.152,-0.156 z"
   id="path48"
   style="fill:#e20718" />
				<path
   d="m 299.32,423.551 c 0.541,-0.16 0.934,-0.58 0.93,-1.268 v -0.043 c 0,-1.021 -0.771,-1.357 -1.724,-1.361 -0.358,0 -0.82,0.02 -1.088,0.051 -0.116,0.006 -0.188,0.072 -0.181,0.173 v 4.312 c 0,0.084 0.063,0.158 0.146,0.159 h 0.334 c 0.094,-0.001 0.148,-0.083 0.148,-0.159 v -1.773 c 0.299,0.01 0.444,0.016 0.64,0.016 0.037,0 0.067,0 0.104,0 0.012,0 0.023,0 0.033,0 l 1.069,1.819 c 0.045,0.08 0.104,0.098 0.166,0.098 0.006,0 0.016,0 0.021,0 h 0.387 c 0.07,0 0.119,-0.056 0.119,-0.116 0,-0.027 -0.012,-0.054 -0.027,-0.077 l -1.077,-1.831 z m 0.315,-1.311 v 0.043 c -0.006,0.645 -0.369,0.814 -1.109,0.82 -0.136,0 -0.382,-0.005 -0.64,-0.012 v -1.618 c 0.156,-0.015 0.463,-0.015 0.64,-0.015 0.753,0.007 1.103,0.19 1.109,0.782 z"
   id="path50"
   style="fill:#e20718" />
				<path
   d="m 302.912,423.061 -0.564,-0.338 c -0.471,-0.285 -0.654,-0.449 -0.654,-0.715 0.004,-0.428 0.236,-0.541 0.871,-0.55 0.352,0 0.787,0.021 1.057,0.036 0.008,0 0.006,0 0.014,0 0.076,0 0.143,-0.053 0.143,-0.134 v -0.266 c 0,-0.083 -0.066,-0.13 -0.137,-0.14 -0.238,-0.037 -0.713,-0.076 -1.076,-0.076 -0.943,0.004 -1.506,0.359 -1.508,1.129 -0.002,0.51 0.295,0.838 0.863,1.182 l 0.6,0.363 c 0.561,0.348 0.721,0.509 0.721,0.795 -0.006,0.418 -0.17,0.683 -0.896,0.69 -0.283,0 -0.736,-0.013 -1.016,-0.037 -0.01,0 -0.016,0 -0.021,0 -0.066,0 -0.143,0.046 -0.143,0.136 v 0.246 c -0.008,0.072 0.041,0.139 0.148,0.146 0.271,0.044 0.594,0.087 1.031,0.087 1.223,-0.001 1.555,-0.665 1.557,-1.269 -0.002,-0.505 -0.269,-0.862 -0.99,-1.285 z"
   id="path52"
   style="fill:#e20718" />
				<path
   d="m 307.732,420.879 c -0.471,0 -0.947,0.031 -1.129,0.064 -0.094,0.012 -0.162,0.09 -0.16,0.189 v 4.23 c -0.004,0.106 0.068,0.18 0.162,0.191 0.18,0.031 0.656,0.062 1.127,0.062 1.152,-0.001 1.9,-0.62 1.902,-1.952 v -0.832 c -0.001,-1.343 -0.749,-1.948 -1.902,-1.952 z m 1.268,1.953 v 0.832 c -0.006,1.094 -0.541,1.393 -1.268,1.398 -0.273,0 -0.465,0 -0.648,-0.01 v -3.603 c 0.188,-0.011 0.375,-0.015 0.648,-0.015 0.727,0.005 1.262,0.296 1.268,1.398 z"
   id="path54"
   style="fill:#e20718" />
				<path
   d="m 313.602,420.922 h -0.332 c -0.092,0 -0.154,0.074 -0.154,0.155 v 2.796 c -0.008,0.795 -0.227,1.184 -0.975,1.189 -0.744,-0.006 -0.967,-0.398 -0.975,-1.189 v -2.796 c 0,-0.087 -0.068,-0.155 -0.148,-0.155 h -0.334 c -0.09,0 -0.154,0.074 -0.154,0.155 v 2.796 c 0.002,1.189 0.598,1.742 1.611,1.743 1.014,-10e-4 1.613,-0.554 1.613,-1.743 v -2.796 c 0,-0.088 -0.072,-0.155 -0.152,-0.155 z"
   id="path56"
   style="fill:#e20718" />
				<path
   d="m 320.045,420.922 h -0.4 c -0.113,-0.002 -0.193,0.036 -0.23,0.127 l -1.016,2.113 c -0.029,0.055 -0.025,0.043 -0.041,0.047 -0.016,-0.004 -0.012,0.008 -0.043,-0.047 l -1.016,-2.113 c -0.037,-0.091 -0.113,-0.129 -0.229,-0.127 h -0.4 c -0.119,0 -0.217,0.099 -0.217,0.218 v 4.274 c 0,0.088 0.074,0.159 0.16,0.159 h 0.303 c 0.086,0 0.162,-0.071 0.162,-0.159 v -3.537 l 0.828,1.716 c 0.059,0.13 0.145,0.205 0.311,0.2 h 0.281 c 0.164,0.005 0.252,-0.07 0.311,-0.199 l 0.83,-1.717 v 3.537 c 0,0.088 0.07,0.159 0.158,0.159 h 0.305 c 0.088,0 0.16,-0.071 0.16,-0.159 v -4.274 c 0,-0.119 -0.1,-0.218 -0.217,-0.218 z"
   id="path58"
   style="fill:#e20718" />
				<path
   d="m 322.891,420.879 c -0.982,0.004 -1.705,0.593 -1.705,1.973 v 0.795 c 0,1.379 0.723,1.967 1.705,1.97 0.982,-0.003 1.699,-0.591 1.701,-1.97 v -0.795 c -0.002,-1.38 -0.719,-1.969 -1.701,-1.973 z m -1.069,1.973 c 0.008,-1.025 0.416,-1.389 1.068,-1.393 0.658,0.004 1.055,0.365 1.061,1.393 v 0.795 c -0.006,1.025 -0.406,1.386 -1.061,1.392 -0.66,-0.006 -1.061,-0.366 -1.068,-1.392 v -0.795 z"
   id="path60"
   style="fill:#e20718" />
				<path
   d="m 328.676,420.922 h -0.326 c -0.084,0 -0.15,0.074 -0.15,0.155 v 3.491 l -1.838,-3.502 c -0.043,-0.098 -0.115,-0.148 -0.285,-0.145 h -0.34 c -0.113,0 -0.213,0.092 -0.213,0.211 v 4.33 c 0,0.091 0.086,0.11 0.146,0.11 h 0.32 c 0.086,-10e-4 0.15,-0.073 0.15,-0.154 v -3.496 l 1.854,3.532 c 0.041,0.074 0.123,0.118 0.23,0.118 l 0,0 h 0.385 c 0.115,0 0.215,-0.097 0.215,-0.214 v -4.282 c 0,-0.076 -0.056,-0.154 -0.148,-0.154 z"
   id="path62"
   style="fill:#e20718" />
				<path
   d="m 331.152,420.879 c -0.469,0 -0.947,0.031 -1.129,0.064 -0.094,0.012 -0.162,0.089 -0.16,0.189 v 4.23 c -0.002,0.109 0.07,0.18 0.16,0.191 0.182,0.031 0.66,0.062 1.129,0.062 1.152,-0.003 1.9,-0.62 1.902,-1.952 v -0.832 c -10e-4,-1.343 -0.749,-1.948 -1.902,-1.952 z m 0,4.184 c -0.273,0 -0.465,0 -0.648,-0.01 v -3.602 c 0.191,-0.012 0.375,-0.016 0.648,-0.016 0.727,0.005 1.262,0.296 1.266,1.396 v 0.832 c -0.004,1.095 -0.539,1.394 -1.266,1.4 z"
   id="path64"
   style="fill:#e20718" />
				<path
   d="m 336.523,420.918 c -0.262,-0.025 -0.84,-0.039 -1.205,-0.039 -0.871,0.004 -1.348,0.348 -1.35,1.184 v 2.371 c 0.002,0.836 0.479,1.182 1.35,1.183 0.361,0 0.963,-0.006 1.205,-0.03 l -0.006,-0.037 0,0 0.006,0.036 c 0.063,-0.013 0.088,-0.071 0.092,-0.122 v -0.314 c 0,-0.056 -0.039,-0.11 -0.102,-0.11 h -1.191 c -0.648,-0.011 -0.709,-0.142 -0.721,-0.604 v -0.998 h 1.855 c 0.09,0 0.158,-0.071 0.158,-0.158 v -0.234 c 0,-0.089 -0.068,-0.16 -0.158,-0.16 h -1.855 v -0.82 c 0.012,-0.461 0.072,-0.592 0.721,-0.604 h 1.191 c 0.061,0 0.102,-0.054 0.102,-0.11 v -0.307 c -0.004,-0.055 -0.029,-0.113 -0.092,-0.127 z"
   id="path66"
   style="fill:#e20718" />
				<path
   d="m 342.348,420.922 h -0.328 c -0.086,0.004 -0.148,0.074 -0.148,0.156 v 3.49 l -1.842,-3.502 c -0.045,-0.1 -0.113,-0.148 -0.283,-0.145 h -0.342 c -0.113,0 -0.211,0.092 -0.211,0.211 v 4.33 c 0,0.091 0.086,0.11 0.148,0.11 h 0.318 c 0.084,-10e-4 0.146,-0.073 0.146,-0.154 v -3.496 l 1.861,3.532 c 0.033,0.076 0.119,0.118 0.225,0.118 h 0.004 0.379 c 0.121,0 0.215,-0.097 0.215,-0.216 v -4.279 c 0,-0.077 -0.052,-0.155 -0.142,-0.155 z"
   id="path68"
   style="fill:#e20718" />
				<path
   d="m 346.588,420.922 h -0.33 c -0.092,0 -0.154,0.074 -0.154,0.156 v 2.795 c -0.008,0.796 -0.227,1.184 -0.977,1.189 -0.74,-0.006 -0.963,-0.398 -0.969,-1.189 v -2.795 c 0,-0.089 -0.078,-0.156 -0.156,-0.156 h -0.334 c -0.086,0 -0.15,0.074 -0.15,0.156 v 2.795 c 0,1.189 0.6,1.74 1.609,1.743 1.018,-0.003 1.613,-0.554 1.617,-1.743 v -2.795 c 0,-0.089 -0.074,-0.156 -0.156,-0.156 z"
   id="path70"
   style="fill:#e20718" />
				<path
   d="m 351.357,420.922 h -0.4 c -0.113,-0.002 -0.191,0.036 -0.23,0.127 l -1.016,2.113 c -0.029,0.055 -0.023,0.043 -0.041,0.047 -0.018,-0.004 -0.016,0.008 -0.043,-0.047 l -1.014,-2.113 c -0.039,-0.091 -0.117,-0.129 -0.23,-0.127 h -0.4 c -0.119,0 -0.215,0.099 -0.215,0.217 v 4.275 c 0,0.088 0.07,0.159 0.162,0.159 h 0.297 c 0.09,0 0.162,-0.071 0.162,-0.159 v -3.537 l 0.832,1.717 c 0.057,0.129 0.145,0.204 0.307,0.201 h 0.285 c 0.16,0.003 0.25,-0.072 0.307,-0.201 l 0.832,-1.717 v 3.537 c 0,0.088 0.072,0.159 0.16,0.159 h 0.299 c 0.088,0 0.162,-0.071 0.162,-0.159 v -4.275 c -10e-4,-0.118 -0.096,-0.217 -0.216,-0.217 z"
   id="path72"
   style="fill:#e20718" />
				<path
   d="m 355.164,420.918 c -0.266,-0.025 -0.844,-0.039 -1.207,-0.039 -0.871,0.004 -1.348,0.348 -1.348,1.184 v 2.372 c 0,0.835 0.477,1.181 1.348,1.182 0.363,0 0.969,-0.006 1.205,-0.031 l -0.004,-0.036 0,0 0.006,0.036 c 0.064,-0.013 0.094,-0.071 0.094,-0.122 v -0.314 c 0,-0.057 -0.041,-0.11 -0.105,-0.11 h -1.189 c -0.648,-0.011 -0.709,-0.142 -0.721,-0.604 v -0.999 h 1.854 c 0.088,0 0.162,-0.07 0.162,-0.158 v -0.236 c 0,-0.087 -0.074,-0.158 -0.162,-0.158 h -1.854 v -0.82 c 0.012,-0.461 0.072,-0.592 0.721,-0.604 h 1.189 c 0.064,0 0.105,-0.054 0.105,-0.11 v -0.307 c 0,-0.054 -0.029,-0.112 -0.094,-0.126 z"
   id="path74"
   style="fill:#e20718" />
				<path
   d="m 353.656,420.682 h 0.332 c 0.002,0.002 0.002,0.002 0.004,0.002 0.082,0 0.115,-0.049 0.166,-0.105 l 0.693,-0.777 c 0.025,-0.023 0.035,-0.049 0.035,-0.072 0,-0.059 -0.059,-0.08 -0.105,-0.08 h -0.406 c -0.084,-0.004 -0.125,0.041 -0.174,0.106 l -0.607,0.763 c -0.023,0.026 -0.031,0.061 -0.031,0.086 0,0.043 0.044,0.077 0.093,0.077 z"
   id="path76"
   style="fill:#e20718" />
				<path
   d="m 358.24,423.551 c 0.547,-0.16 0.949,-0.58 0.945,-1.267 v -0.042 c 0,-1.023 -0.783,-1.359 -1.76,-1.363 -0.359,0 -0.822,0.02 -1.09,0.051 -0.113,0.006 -0.186,0.074 -0.18,0.173 v 4.312 c 0,0.084 0.064,0.159 0.148,0.159 h 0.332 c 0.096,-0.001 0.146,-0.084 0.146,-0.159 v -1.773 c 0.301,0.011 0.445,0.016 0.643,0.016 0.037,0 0.066,0 0.105,0 0.014,0 0.023,0 0.033,0 l 1.094,1.819 c 0.043,0.082 0.107,0.098 0.166,0.098 0.01,0 0.018,0 0.025,0 h 0.395 c 0.066,0 0.113,-0.056 0.113,-0.118 0.002,-0.025 -0.006,-0.052 -0.023,-0.074 l -1.092,-1.832 z m 0.319,-1.309 v 0.042 c -0.004,0.644 -0.377,0.813 -1.133,0.819 -0.135,0 -0.385,-0.005 -0.643,-0.012 v -1.618 c 0.158,-0.015 0.467,-0.015 0.643,-0.015 0.767,0.007 1.129,0.192 1.133,0.784 z"
   id="path78"
   style="fill:#e20718" />
				<path
   d="m 360.709,420.922 h -0.34 c -0.09,0 -0.145,0.077 -0.145,0.156 v 4.336 c 0,0.084 0.057,0.159 0.145,0.159 h 0.34 c 0.092,-10e-4 0.146,-0.084 0.146,-0.159 v -4.336 c 0,-0.087 -0.062,-0.156 -0.146,-0.156 z"
   id="path80"
   style="fill:#e20718" />
				<path
   d="m 363.557,420.879 c -0.984,0.004 -1.705,0.592 -1.705,1.973 v 0.795 c -0.004,1.227 0.57,1.832 1.389,1.945 v 0.246 c 0,0.664 0.354,0.842 0.963,0.842 0.311,-0.003 0.518,-0.024 0.533,-0.184 v -0.209 c 0,-0.096 -0.094,-0.135 -0.172,-0.135 h -0.361 c -0.314,-0.013 -0.334,-0.018 -0.346,-0.32 V 425.6 c 0.824,-0.11 1.402,-0.721 1.396,-1.953 v -0.795 c -0.002,-1.381 -0.717,-1.969 -1.697,-1.973 z m -1.069,1.973 c 0.008,-1.027 0.414,-1.387 1.068,-1.394 0.656,0.007 1.053,0.366 1.061,1.394 v 0.795 c -0.008,1.025 -0.41,1.386 -1.061,1.392 -0.66,-0.006 -1.061,-0.366 -1.068,-1.392 v -0.795 z"
   id="path82"
   style="fill:#e20718" />
				<path
   d="m 369.24,420.922 h -0.332 c -0.09,0 -0.154,0.076 -0.154,0.156 v 2.795 c -0.008,0.796 -0.229,1.184 -0.973,1.189 -0.744,-0.006 -0.967,-0.398 -0.975,-1.189 v -2.795 c 0,-0.091 -0.07,-0.156 -0.152,-0.156 h -0.336 c -0.088,0 -0.148,0.076 -0.148,0.156 v 2.795 c 0,1.189 0.6,1.742 1.611,1.743 1.012,-10e-4 1.611,-0.554 1.613,-1.743 v -2.795 c 10e-4,-0.091 -0.074,-0.156 -0.154,-0.156 z"
   id="path84"
   style="fill:#e20718" />
				<path
   d="m 371.771,421.458 h 1.189 c 0.061,0 0.104,-0.054 0.104,-0.11 v -0.307 c 0,-0.051 -0.029,-0.109 -0.09,-0.123 -0.266,-0.025 -0.844,-0.039 -1.209,-0.039 -0.869,0.004 -1.348,0.348 -1.35,1.184 v 2.372 c 0.002,0.835 0.48,1.181 1.35,1.182 0.365,0 0.969,-0.007 1.209,-0.03 l -0.008,-0.037 0.008,0.036 c 0.061,-0.013 0.09,-0.071 0.09,-0.122 v -0.314 c 0,-0.057 -0.043,-0.11 -0.104,-0.11 h -1.189 c -0.645,-0.012 -0.709,-0.142 -0.721,-0.604 v -0.999 h 1.855 c 0.088,0 0.158,-0.071 0.158,-0.158 v -0.236 c 0,-0.087 -0.07,-0.158 -0.158,-0.158 h -1.855 v -0.82 c 0.013,-0.463 0.077,-0.594 0.721,-0.607 z"
   id="path86"
   style="fill:#e20718" />
			</g>
		</g>
	</g>
	
</g>
</svg>