<?xml version="1.0" encoding="UTF-8" standalone="no"?>
<!-- Generator: Adobe Illustrator 15.0.2, SVG Export Plug-In . SVG Version: 6.00 Build 0)  -->

<svg
   xmlns:dc="http://purl.org/dc/elements/1.1/"
   xmlns:cc="http://creativecommons.org/ns#"
   xmlns:rdf="http://www.w3.org/1999/02/22-rdf-syntax-ns#"
   xmlns:svg="http://www.w3.org/2000/svg"
   xmlns="http://www.w3.org/2000/svg"
   xmlns:xlink="http://www.w3.org/1999/xlink"
   xmlns:sodipodi="http://sodipodi.sourceforge.net/DTD/sodipodi-0.dtd"
   xmlns:inkscape="http://www.inkscape.org/namespaces/inkscape"
   version="1.1"
   id="Calque_1"
   x="0px"
   y="0px"
   width="191"
   height="201.23"
   viewBox="0 0 190.99999 201.23"
   enable-background="new 0 0 595.28 841.89"
   xml:space="preserve"
   inkscape:version="0.47 r22583"
   sodipodi:docname="tabup10x-en.svg"><metadata
   id="metadata92"><rdf:RDF><cc:Work
       rdf:about=""><dc:format>image/svg+xml</dc:format><dc:type
         rdf:resource="http://purl.org/dc/dcmitype/StillImage" /><dc:title /></cc:Work></rdf:RDF></metadata><defs
   id="defs90"><inkscape:perspective
     sodipodi:type="inkscape:persp3d"
     inkscape:vp_x="0 : 420.94501 : 1"
     inkscape:vp_y="0 : 1000 : 0"
     inkscape:vp_z="595.28003 : 420.94501 : 1"
     inkscape:persp3d-origin="297.64001 : 280.63 : 1"
     id="perspective94" /><inkscape:perspective
     id="perspective3775"
     inkscape:persp3d-origin="0.5 : 0.33333333 : 1"
     inkscape:vp_z="1 : 0.5 : 1"
     inkscape:vp_y="0 : 1000 : 0"
     inkscape:vp_x="0 : 0.5 : 1"
     sodipodi:type="inkscape:persp3d" /><radialGradient
     inkscape:collect="always"
     xlink:href="#SVGID_1_"
     id="radialGradient2958"
     gradientUnits="userSpaceOnUse"
     gradientTransform="matrix(1.5,0,0,1.5,-128.8574,-125.1348)"
     cx="275.14359"
     cy="385.86819"
     r="43.4492" /><filter
     inkscape:collect="always"
     id="filter3856"><feGaussianBlur
       inkscape:collect="always"
       stdDeviation="6.0081613"
       id="feGaussianBlur3858" /></filter><inkscape:perspective
     id="perspective2864"
     inkscape:persp3d-origin="0.5 : 0.33333333 : 1"
     inkscape:vp_z="1 : 0.5 : 1"
     inkscape:vp_y="0 : 1000 : 0"
     inkscape:vp_x="0 : 0.5 : 1"
     sodipodi:type="inkscape:persp3d" /><clipPath
     clipPathUnits="userSpaceOnUse"
     id="clipPath20"><path
       d="M 0,1962.24 0,0 l 4706.79,0 0,1962.24 -4706.79,0 z"
       id="path22" /></clipPath><clipPath
     clipPathUnits="userSpaceOnUse"
     id="clipPath30"><path
       d="m 1613.67,753.441 c -56.02,-54.742 -178.72,-146.363 -285.95,-146.363 -79.31,0 78.67,142.113 156.9,256.672 74.68,109.441 13.61,142.21 -48.06,142.21 -152.68,0 -301.81,-107.179 -402.93,-182.538 30.54,40.887 78.09,93.316 128.81,160.25 28.11,37.178 -140.25,23.848 -183.331,-32.871 C 965.383,932.859 950.242,912.711 934.102,891.18 787.988,715.559 567.285,597.07 458.977,597.07 c -60.364,0 -82.329,41.571 -44.758,120.16 90.566,189.469 402.668,549.52 572.285,707.18 77.006,72.16 -154.395,42.77 -207.461,-10.54 C 544.016,1177.31 307.402,913.371 240.684,707.941 203.809,594.352 237.844,492.32 378.965,492.32 c 115.871,0 244.199,57.391 353.191,125.559 -26.804,-36.559 -51.297,-69.77 -70.957,-96.5 -30.75,-41.68 125.188,-26.449 158.086,15.531 123.344,157.762 419.685,351.879 502.205,351.879 75.08,0 -183.57,-193.828 -181.17,-312.48 3,-155.821 363.95,-60.379 486.42,99.992 19.21,25.008 4.23,93.898 -13.07,77.14 z M 2856.89,595.98 c -143.1,0 143.46,327.02 330.12,327.02 111.76,0 -192.11,-327.02 -330.12,-327.02 z M 4423.07,738.102 C 4186.23,885.641 3538.55,628.52 3292.89,599.219 c -46.03,-5.508 -62.79,6.133 -51.93,37.363 20.84,60.227 102.95,170.996 119.47,209.156 15.59,36.41 13.46,161.642 -171.76,161.642 -151.35,0 -290.19,-70.278 -387.79,-158.751 -92.99,-79.301 -273.15,-236.207 -384.06,-236.207 -114.8,0 221.44,346.867 240.02,364.375 49.98,46.893 -107.6,35.323 -173.81,-15.117 -26.45,-20.141 -132.14,-133.168 -198.25,-242.649 -191.22,-132.179 -381.57,-162.859 -290.99,-52.98 48.14,58.558 129.62,136.988 185.66,199.109 78.23,86.77 64.1,143.85 -108.63,143.85 -231.21,0 -255.67,-20.123 -386.12,-172.881 -24.19,-28.418 -11.67,-99.551 13.32,-74.867 156.48,154.82 152.93,142.207 360.09,142.207 -33.32,-35.379 -92.68,-70.68 -193.37,-198.469 -89.73,-114.012 -31.03,-206.148 96.39,-206.148 70.46,0 175.64,33.046 271.83,100.839 -11.52,-59.402 12.33,-101.921 103.07,-101.921 105.1,0 225.12,62.531 324.58,132.07 -12.47,-75.449 26.36,-132.07 137.63,-132.07 85.61,0 185.3,33.621 288.21,122.839 -0.55,-68.179 47.53,-122.328 137.16,-122.328 218.25,0 972,273.75 1234.24,115.649 32.83,-19.719 31.37,83.019 -34.78,124.172 z M 2743.36,1101.75 c 58.1,35.01 167.4,119.86 221.19,174.36 42.03,42.64 -142.87,23.63 -187.32,-14.34 -47.89,-40.94 -127.48,-114.26 -172.5,-167.04 -26.25,-30.77 80.99,-27.68 138.63,7.02 z m -1665.67,471.09 c 58.13,35.02 117.97,81.89 171.7,136.41 42.05,42.65 -142.83,23.61 -187.32,-14.36 -47.81,-40.88 -97.031,-86.04 -142.031,-138.79 -26.309,-30.72 100.011,-17.99 157.651,16.74 z"
       id="path32" /></clipPath><radialGradient
     fx="0"
     fy="0"
     cx="0"
     cy="0"
     r="1"
     gradientUnits="userSpaceOnUse"
     gradientTransform="matrix(185.082,0,0,-185.082,194.481,-57.327)"
     spreadMethod="pad"
     id="radialGradient34"><stop
       style="stop-opacity:1;stop-color:#fbc81d"
       offset="0"
       id="stop36" /><stop
       style="stop-opacity:1;stop-color:#ed192e"
       offset="1"
       id="stop38" /></radialGradient><clipPath
     clipPathUnits="userSpaceOnUse"
     id="clipPath46"><path
       d="M 0,1962.24 0,0 l 4706.79,0 0,1962.24 -4706.79,0 z"
       id="path48-4" /></clipPath><inkscape:perspective
     id="perspective5244"
     inkscape:persp3d-origin="0.5 : 0.33333333 : 1"
     inkscape:vp_z="1 : 0.5 : 1"
     inkscape:vp_y="0 : 1000 : 0"
     inkscape:vp_x="0 : 0.5 : 1"
     sodipodi:type="inkscape:persp3d" /><clipPath
     clipPathUnits="userSpaceOnUse"
     id="clipPath2410"><path
       d="m 0,841.89 595.276,0 L 595.276,0 0,0 0,841.89 z"
       id="path2412" /></clipPath><clipPath
     clipPathUnits="userSpaceOnUse"
     id="clipPath2390"><path
       d="m 167.674,685.688 c -4.781,-4.088 -9.703,-8.604 -14.203,-13.878 l 0,0 c -2.631,-3.073 10,-1.8 15.764,1.673 l 0,0 c 5.814,3.502 11.798,8.189 17.171,13.641 l 0,0 c 1.688,1.713 -0.283,2.431 -3.535,2.431 l 0,0 c -4.845,0 -12.535,-1.594 -15.197,-3.867 M 139.371,657.586 C 115.868,633.93 92.207,607.537 85.535,586.993 l 0,0 c -3.687,-11.358 -0.284,-21.562 13.829,-21.562 l 0,0 c 11.586,0 24.419,5.74 35.318,12.556 l 0,0 c -2.68,-3.656 -5.13,-6.977 -7.095,-9.651 l 0,0 c -3.076,-4.167 12.519,-2.644 15.808,1.554 l 0,0 c 12.335,15.777 41.969,35.189 50.221,35.189 l 0,0 c 7.508,0 -18.357,-19.383 -18.117,-31.248 l 0,0 c 0.3,-15.583 36.394,-6.039 48.642,9.999 l 0,0 c 1.92,2.5 0.422,9.389 -1.307,7.713 l 0,0 c -5.603,-5.474 -17.872,-14.635 -28.595,-14.635 l 0,0 c -7.932,0 7.867,14.21 15.69,25.666 l 0,0 c 7.468,10.944 1.361,14.221 -4.806,14.221 l 0,0 c -15.269,0 -30.182,-10.717 -40.293,-18.254 l 0,0 c 3.054,4.089 7.809,9.332 12.881,16.026 l 0,0 c 2.81,3.717 -14.025,2.384 -18.333,-3.288 l 0,0 c -1.373,-1.795 -2.887,-3.809 -4.502,-5.961 l 0,0 c -14.61,-17.563 -36.681,-29.412 -47.511,-29.412 l 0,0 c -6.037,0 -8.234,4.157 -4.476,12.016 l 0,0 c 9.057,18.948 40.266,54.953 57.228,70.718 l 0,0 c 3.265,3.06 0.985,4.294 -3.129,4.294 l 0,0 c -5.588,0 -14.56,-2.277 -17.617,-5.348 m 199.818,-15.21 c -4.789,-4.094 -12.747,-11.426 -17.25,-16.703 l 0,0 c -2.624,-3.078 8.1,-2.769 13.864,0.701 l 0,0 c 5.81,3.501 16.74,11.986 22.119,17.436 l 0,0 c 1.688,1.713 -0.286,2.431 -3.539,2.431 l 0,0 c -4.847,0 -12.534,-1.593 -15.194,-3.865 M 229.936,599.812 c -2.419,-2.841 -1.167,-9.955 1.332,-7.486 l 0,0 c 15.649,15.481 15.293,14.22 36.009,14.22 l 0,0 c -3.331,-3.538 -9.267,-7.068 -19.337,-19.847 l 0,0 c -8.972,-11.401 -3.102,-20.615 9.64,-20.615 l 0,0 c 7.046,0 17.563,3.305 27.183,10.084 l 0,0 c -1.152,-5.94 1.233,-10.192 10.306,-10.192 l 0,0 c 10.511,0 22.513,6.253 32.458,13.207 l 0,0 c -1.246,-7.544 2.637,-13.207 13.764,-13.207 l 0,0 c 8.561,0 18.529,3.362 28.82,12.284 l 0,0 c -0.054,-6.818 4.754,-12.233 13.717,-12.233 l 0,0 c 21.824,0 97.199,27.374 123.424,11.565 l 0,0 c 3.283,-1.972 3.137,8.303 -3.479,12.417 l 0,0 C 480.09,604.764 415.322,579.051 390.756,576.121 l 0,0 c -4.604,-0.55 -6.28,0.612 -5.193,3.736 l 0,0 c 2.083,6.023 10.295,17.1 11.947,20.915 l 0,0 c 1.558,3.643 1.346,16.165 -17.176,16.165 l 0,0 c -15.135,0 -29.02,-7.028 -38.779,-15.875 l 0,0 c -9.299,-7.93 -27.315,-23.62 -38.406,-23.62 l 0,0 c -11.48,0 22.144,34.687 24.001,36.437 l 0,0 c 4.999,4.689 -10.759,3.532 -17.381,-1.512 l 0,0 c -2.644,-2.013 -13.214,-13.317 -19.825,-24.265 l 0,0 c -19.121,-13.217 -38.156,-16.285 -29.098,-5.298 l 0,0 c 4.814,5.856 12.962,13.699 18.566,19.912 l 0,0 c 7.822,8.676 6.41,14.384 -10.863,14.384 l 0,0 c -23.122,0 -25.568,-2.012 -38.613,-17.288 m 150.232,8.687 c 11.175,0 -19.211,-32.702 -33.012,-32.702 l 0,0 c -14.31,0 14.346,32.702 33.012,32.702"
       id="path2392" /></clipPath><radialGradient
     fx="0"
     fy="0"
     cx="0"
     cy="0"
     r="1"
     gradientUnits="userSpaceOnUse"
     gradientTransform="matrix(185.08243,0,0,-185.08243,255.94824,458.87207)"
     spreadMethod="pad"
     id="radialGradient2398"><stop
       style="stop-opacity:1;stop-color:#fbc81e"
       offset="0"
       id="stop2400" /><stop
       style="stop-opacity:1;stop-color:#ed192e"
       offset="1"
       id="stop2402" /></radialGradient><radialGradient
     inkscape:collect="always"
     xlink:href="#radialGradient2398"
     id="radialGradient3437"
     gradientUnits="userSpaceOnUse"
     gradientTransform="matrix(185.08243,0,0,-185.08243,255.94824,458.87207)"
     spreadMethod="pad"
     cx="0"
     cy="0"
     fx="0"
     fy="0"
     r="1" /></defs><sodipodi:namedview
   pagecolor="#ffffff"
   bordercolor="#666666"
   borderopacity="1"
   objecttolerance="10"
   gridtolerance="10"
   guidetolerance="10"
   inkscape:pageopacity="0"
   inkscape:pageshadow="2"
   inkscape:window-width="1680"
   inkscape:window-height="986"
   id="namedview88"
   showgrid="false"
   inkscape:zoom="2"
   inkscape:cx="234.75239"
   inkscape:cy="57.640975"
   inkscape:window-x="0"
   inkscape:window-y="31"
   inkscape:window-maximized="1"
   inkscape:current-layer="g3" />
<g
   id="g3"
   transform="translate(-197.15671,-307.63532)">
	<rect
   ry="11.233"
   rx="11.233"
   y="296.39932"
   x="208.38971"
   height="201.233"
   width="168.5"
   id="rect3854"
   style="fill:#000000;fill-opacity:1;stroke:none;opacity:0.7;filter:url(#filter3856)" /><rect
   style="fill:#ffffff;fill-opacity:1;stroke:none"
   id="rect2902"
   width="168.5"
   height="201.233"
   x="208.38971"
   y="296.39932"
   rx="11.233"
   ry="11.233" /><g
   id="g15"
   transform="translate(-5.8382855,36.653319)">
		<polygon
   points="381.078,364.368 381.115,433.479 215.411,433.479 215.375,364.368 "
   id="polygon17"
   style="fill:#ffffff" />
		<g
   id="g19">
			<g
   id="g21">
				
					<radialGradient
   id="SVGID_1_"
   cx="275.14359"
   cy="385.86819"
   r="43.4492"
   gradientTransform="matrix(1.5,0,0,1.5,-128.8574,-125.1348)"
   gradientUnits="userSpaceOnUse">
					<stop
   offset="0.4"
   style="stop-color:#FFCD1D"
   id="stop24" />
					<stop
   offset="0.6872"
   style="stop-color:#F08026"
   id="stop26" />
					<stop
   offset="1"
   style="stop-color:#E40A22"
   id="stop28" />
				</radialGradient>
				<path
   d="m 253.332,378.084 c 2.047,-1.234 4.155,-2.886 6.047,-4.805 1.48,-1.502 -5.031,-0.832 -6.597,0.506 -1.684,1.439 -3.417,3.03 -5.002,4.888 -0.928,1.081 3.521,0.634 5.552,-0.589 z m 58.631,16.592 c 2.045,-1.234 5.895,-4.223 7.789,-6.141 1.48,-1.504 -5.031,-0.832 -6.598,0.504 -1.688,1.441 -4.488,4.023 -6.074,5.883 -0.924,1.084 2.852,0.974 4.883,-0.246 z m 59.162,12.806 c -8.346,-5.196 -31.154,3.859 -39.807,4.893 -1.625,0.193 -2.211,-0.216 -1.828,-1.316 0.729,-2.121 3.623,-6.022 4.205,-7.366 0.549,-1.282 0.477,-5.694 -6.049,-5.694 -5.332,0 -10.221,2.477 -13.66,5.591 -3.275,2.795 -9.619,8.321 -13.527,8.321 -4.006,0 7.801,-12.218 8.455,-12.834 1.76,-1.651 -3.789,-1.246 -6.121,0.533 -0.932,0.708 -4.619,4.689 -6.948,8.545 -6.735,4.656 -13.439,5.736 -10.25,1.865 1.697,-2.061 4.567,-4.822 6.541,-7.012 2.755,-3.055 2.258,-5.064 -3.825,-5.064 -8.144,0 -9.006,0.705 -13.601,6.086 -0.853,1.001 -0.412,3.507 0.469,2.637 5.512,-5.453 5.386,-5.008 12.682,-5.008 -1.173,1.248 -3.263,2.49 -6.809,6.991 -3.16,4.014 -1.094,7.259 3.395,7.259 2.481,0 6.186,-1.164 9.574,-3.55 -0.406,2.091 0.432,3.589 3.629,3.589 3.667,0 7.894,-2.202 11.396,-4.651 -0.438,2.657 0.928,4.651 4.848,4.651 3.016,0 6.527,-1.184 10.15,-4.326 -0.02,2.4 1.674,4.309 4.83,4.309 7.686,0 34.236,-9.643 43.471,-4.074 1.159,0.694 1.108,-2.925 -1.22,-4.375 z m -55.164,5.006 c -5.039,0 5.053,-11.518 11.625,-11.518 3.935,10e-4 -6.766,11.518 -11.625,11.518 z m -43.753,-5.546 c -1.973,1.929 -6.294,5.153 -10.07,5.153 -2.793,0 2.771,-5.004 5.527,-9.039 2.629,-3.854 0.478,-5.008 -1.694,-5.008 -5.378,0 -10.63,3.774 -14.192,6.43 1.077,-1.441 2.75,-3.287 4.538,-5.645 0.989,-1.309 -4.94,-0.842 -6.457,1.158 -0.485,0.631 -1.017,1.34 -1.584,2.1 -5.148,6.184 -12.92,10.357 -16.736,10.357 -2.126,0 -2.9,-1.465 -1.576,-4.23 3.189,-6.674 14.182,-19.355 20.156,-24.908 2.712,-2.541 -5.438,-1.506 -7.308,0.371 -8.277,8.332 -16.611,17.629 -18.96,24.863 -1.299,4.002 -0.1,7.594 4.87,7.594 4.082,0 8.602,-2.021 12.439,-4.422 -0.943,1.287 -1.807,2.457 -2.499,3.4 -1.083,1.466 4.409,0.931 5.569,-0.549 4.342,-5.555 14.78,-12.393 17.688,-12.393 2.643,0 -6.466,6.826 -6.381,11.006 0.105,5.488 12.818,2.125 17.132,-3.523 0.676,-0.878 0.147,-3.304 -0.462,-2.715 z"
   id="path30"
   style="fill:url(#radialGradient2958)" />
			</g>
			<g
   id="g32">
				<path
   d="m 268.771,420.922 h -0.34 c -0.09,0 -0.148,0.077 -0.148,0.155 v 4.337 c 0,0.084 0.063,0.158 0.148,0.159 h 0.34 c 0.092,-10e-4 0.147,-0.084 0.148,-0.159 v -4.337 c -10e-4,-0.086 -0.068,-0.155 -0.148,-0.155 z"
   id="path34"
   style="fill:#e20718" />
				<path
   d="m 273.174,420.922 h -0.326 c -0.084,0 -0.149,0.074 -0.149,0.155 v 3.489 l -1.839,-3.5 c -0.047,-0.098 -0.111,-0.148 -0.285,-0.145 h -0.339 c -0.116,0 -0.214,0.09 -0.214,0.211 v 4.33 c 0,0.091 0.089,0.11 0.147,0.11 h 0.32 c 0.085,-10e-4 0.147,-0.073 0.147,-0.154 v -3.496 l 1.859,3.532 c 0.038,0.076 0.122,0.118 0.227,0.118 0.001,0 0.001,0 0.002,0 h 0.383 c 0.119,0 0.215,-0.097 0.215,-0.216 v -4.28 c -10e-4,-0.076 -0.059,-0.154 -0.148,-0.154 z"
   id="path36"
   style="fill:#e20718" />
				<path
   d="m 277.423,420.922 h -0.363 c -0.072,0.004 -0.124,0.06 -0.14,0.122 l -1.079,3.923 c -0.027,0.084 -0.042,0.102 -0.081,0.102 -0.046,-0.002 -0.061,-0.019 -0.088,-0.102 l -1.071,-3.924 c -0.018,-0.065 -0.076,-0.117 -0.146,-0.121 h -0.358 c -0.078,0 -0.146,0.062 -0.146,0.143 0,0.012 -0.001,0.033 0.011,0.055 l 1.136,4.002 c 0.114,0.406 0.427,0.496 0.663,0.495 0.003,0 0.006,0 0.007,0 0.24,0 0.543,-0.093 0.657,-0.495 l 1.131,-4.004 c 0.009,-0.022 0.009,-0.041 0.009,-0.053 -10e-4,-0.08 -0.063,-0.143 -0.142,-0.143 z"
   id="path38"
   style="fill:#e20718" />
				<path
   d="m 280.73,420.918 c -0.265,-0.025 -0.842,-0.039 -1.207,-0.039 -0.87,0.004 -1.348,0.348 -1.349,1.184 v 2.371 c 0.001,0.836 0.479,1.182 1.349,1.183 0.364,0 0.966,-0.007 1.205,-0.031 l -0.004,-0.036 0,0 0.006,0.036 c 0.063,-0.013 0.091,-0.071 0.093,-0.122 v -0.314 c 0,-0.057 -0.042,-0.11 -0.103,-0.11 h -1.189 c -0.65,-0.012 -0.711,-0.142 -0.722,-0.604 v -0.998 h 1.855 c 0.087,0 0.159,-0.071 0.159,-0.158 v -0.236 c 0,-0.087 -0.072,-0.158 -0.159,-0.158 h -1.855 v -0.82 c 0.01,-0.461 0.071,-0.592 0.722,-0.604 h 1.189 c 0.061,0 0.103,-0.054 0.103,-0.11 v -0.307 c -0.002,-0.055 -0.03,-0.113 -0.093,-0.127 z"
   id="path40"
   style="fill:#e20718" />
				<path
   d="m 284.876,420.922 h -0.328 c -0.084,0 -0.146,0.074 -0.146,0.155 v 3.489 l -1.841,-3.5 c -0.045,-0.098 -0.11,-0.148 -0.285,-0.145 h -0.337 c -0.117,0 -0.216,0.09 -0.216,0.211 v 4.33 c 0,0.091 0.087,0.11 0.147,0.11 h 0.32 c 0.085,-10e-4 0.149,-0.073 0.149,-0.154 v -3.493 l 1.858,3.529 c 0.037,0.074 0.122,0.118 0.227,0.118 0.001,0 0.001,0 0.001,0 h 0.383 c 0.119,0 0.214,-0.097 0.214,-0.214 v -4.282 c 0,-0.077 -0.057,-0.154 -0.146,-0.154 z"
   id="path42"
   style="fill:#e20718" />
				<path
   d="m 288.713,420.922 h -2.962 c -0.084,0 -0.159,0.064 -0.161,0.148 v 0.273 c 0,0.092 0.084,0.133 0.161,0.133 h 1.163 v 3.938 c 0,0.084 0.063,0.159 0.149,0.159 h 0.338 c 0.093,-10e-4 0.147,-0.083 0.147,-0.159 v -3.938 h 1.165 c 0.08,0 0.152,-0.049 0.154,-0.133 v -0.273 c -0.002,-0.086 -0.071,-0.148 -0.154,-0.148 z"
   id="path44"
   style="fill:#e20718" />
				<path
   d="m 292.033,420.918 c -0.264,-0.025 -0.843,-0.039 -1.207,-0.039 -0.871,0.004 -1.348,0.346 -1.348,1.184 v 2.372 c 0,0.835 0.477,1.181 1.348,1.182 0.364,0 0.966,-0.006 1.205,-0.031 l -0.004,-0.036 0,0 0.007,0.036 c 0.063,-0.013 0.091,-0.071 0.091,-0.122 v -0.314 c 0,-0.057 -0.039,-0.11 -0.104,-0.11 h -1.189 c -0.647,-0.012 -0.709,-0.142 -0.72,-0.604 v -0.999 h 1.855 c 0.086,0 0.158,-0.071 0.158,-0.158 v -0.234 c 0,-0.089 -0.071,-0.16 -0.158,-0.16 h -1.855 v -0.82 c 0.01,-0.461 0.073,-0.592 0.72,-0.604 h 1.189 c 0.063,0 0.104,-0.055 0.104,-0.111 v -0.307 c -10e-4,-0.053 -0.03,-0.111 -0.092,-0.125 z"
   id="path46"
   style="fill:#e20718" />
				<path
   d="m 296.082,420.922 h -0.334 c -0.088,0 -0.151,0.074 -0.151,0.156 v 2.795 c -0.009,0.796 -0.231,1.184 -0.976,1.189 -0.746,-0.006 -0.967,-0.398 -0.974,-1.189 v -2.795 c 0,-0.089 -0.073,-0.156 -0.154,-0.156 h -0.332 c -0.089,0 -0.154,0.074 -0.154,0.156 v 2.795 c 10e-4,1.188 0.602,1.742 1.615,1.743 1.014,-10e-4 1.611,-0.555 1.612,-1.743 v -2.795 c -10e-4,-0.088 -0.074,-0.156 -0.152,-0.156 z"
   id="path48"
   style="fill:#e20718" />
				<path
   d="m 299.32,423.551 c 0.541,-0.16 0.934,-0.58 0.93,-1.268 v -0.043 c 0,-1.021 -0.771,-1.357 -1.724,-1.361 -0.358,0 -0.82,0.02 -1.088,0.051 -0.116,0.006 -0.188,0.072 -0.181,0.173 v 4.312 c 0,0.084 0.063,0.158 0.146,0.159 h 0.334 c 0.094,-0.001 0.148,-0.083 0.148,-0.159 v -1.773 c 0.299,0.01 0.444,0.016 0.64,0.016 0.037,0 0.067,0 0.104,0 0.012,0 0.023,0 0.033,0 l 1.069,1.819 c 0.045,0.08 0.104,0.098 0.166,0.098 0.006,0 0.016,0 0.021,0 h 0.387 c 0.07,0 0.119,-0.056 0.119,-0.116 0,-0.027 -0.012,-0.054 -0.027,-0.077 l -1.077,-1.831 z m 0.315,-1.311 v 0.043 c -0.006,0.645 -0.369,0.814 -1.109,0.82 -0.136,0 -0.382,-0.005 -0.64,-0.012 v -1.618 c 0.156,-0.015 0.463,-0.015 0.64,-0.015 0.753,0.007 1.103,0.19 1.109,0.782 z"
   id="path50"
   style="fill:#e20718" />
				<path
   d="m 302.912,423.061 -0.564,-0.338 c -0.471,-0.285 -0.654,-0.449 -0.654,-0.715 0.004,-0.428 0.236,-0.541 0.871,-0.55 0.352,0 0.787,0.021 1.057,0.036 0.008,0 0.006,0 0.014,0 0.076,0 0.143,-0.053 0.143,-0.134 v -0.266 c 0,-0.083 -0.066,-0.13 -0.137,-0.14 -0.238,-0.037 -0.713,-0.076 -1.076,-0.076 -0.943,0.004 -1.506,0.359 -1.508,1.129 -0.002,0.51 0.295,0.838 0.863,1.182 l 0.6,0.363 c 0.561,0.348 0.721,0.509 0.721,0.795 -0.006,0.418 -0.17,0.683 -0.896,0.69 -0.283,0 -0.736,-0.013 -1.016,-0.037 -0.01,0 -0.016,0 -0.021,0 -0.066,0 -0.143,0.046 -0.143,0.136 v 0.246 c -0.008,0.072 0.041,0.139 0.148,0.146 0.271,0.044 0.594,0.087 1.031,0.087 1.223,-0.001 1.555,-0.665 1.557,-1.269 -0.002,-0.505 -0.269,-0.862 -0.99,-1.285 z"
   id="path52"
   style="fill:#e20718" />
				<path
   d="m 307.732,420.879 c -0.471,0 -0.947,0.031 -1.129,0.064 -0.094,0.012 -0.162,0.09 -0.16,0.189 v 4.23 c -0.004,0.106 0.068,0.18 0.162,0.191 0.18,0.031 0.656,0.062 1.127,0.062 1.152,-0.001 1.9,-0.62 1.902,-1.952 v -0.832 c -0.001,-1.343 -0.749,-1.948 -1.902,-1.952 z m 1.268,1.953 v 0.832 c -0.006,1.094 -0.541,1.393 -1.268,1.398 -0.273,0 -0.465,0 -0.648,-0.01 v -3.603 c 0.188,-0.011 0.375,-0.015 0.648,-0.015 0.727,0.005 1.262,0.296 1.268,1.398 z"
   id="path54"
   style="fill:#e20718" />
				<path
   d="m 313.602,420.922 h -0.332 c -0.092,0 -0.154,0.074 -0.154,0.155 v 2.796 c -0.008,0.795 -0.227,1.184 -0.975,1.189 -0.744,-0.006 -0.967,-0.398 -0.975,-1.189 v -2.796 c 0,-0.087 -0.068,-0.155 -0.148,-0.155 h -0.334 c -0.09,0 -0.154,0.074 -0.154,0.155 v 2.796 c 0.002,1.189 0.598,1.742 1.611,1.743 1.014,-10e-4 1.613,-0.554 1.613,-1.743 v -2.796 c 0,-0.088 -0.072,-0.155 -0.152,-0.155 z"
   id="path56"
   style="fill:#e20718" />
				<path
   d="m 320.045,420.922 h -0.4 c -0.113,-0.002 -0.193,0.036 -0.23,0.127 l -1.016,2.113 c -0.029,0.055 -0.025,0.043 -0.041,0.047 -0.016,-0.004 -0.012,0.008 -0.043,-0.047 l -1.016,-2.113 c -0.037,-0.091 -0.113,-0.129 -0.229,-0.127 h -0.4 c -0.119,0 -0.217,0.099 -0.217,0.218 v 4.274 c 0,0.088 0.074,0.159 0.16,0.159 h 0.303 c 0.086,0 0.162,-0.071 0.162,-0.159 v -3.537 l 0.828,1.716 c 0.059,0.13 0.145,0.205 0.311,0.2 h 0.281 c 0.164,0.005 0.252,-0.07 0.311,-0.199 l 0.83,-1.717 v 3.537 c 0,0.088 0.07,0.159 0.158,0.159 h 0.305 c 0.088,0 0.16,-0.071 0.16,-0.159 v -4.274 c 0,-0.119 -0.1,-0.218 -0.217,-0.218 z"
   id="path58"
   style="fill:#e20718" />
				<path
   d="m 322.891,420.879 c -0.982,0.004 -1.705,0.593 -1.705,1.973 v 0.795 c 0,1.379 0.723,1.967 1.705,1.97 0.982,-0.003 1.699,-0.591 1.701,-1.97 v -0.795 c -0.002,-1.38 -0.719,-1.969 -1.701,-1.973 z m -1.069,1.973 c 0.008,-1.025 0.416,-1.389 1.068,-1.393 0.658,0.004 1.055,0.365 1.061,1.393 v 0.795 c -0.006,1.025 -0.406,1.386 -1.061,1.392 -0.66,-0.006 -1.061,-0.366 -1.068,-1.392 v -0.795 z"
   id="path60"
   style="fill:#e20718" />
				<path
   d="m 328.676,420.922 h -0.326 c -0.084,0 -0.15,0.074 -0.15,0.155 v 3.491 l -1.838,-3.502 c -0.043,-0.098 -0.115,-0.148 -0.285,-0.145 h -0.34 c -0.113,0 -0.213,0.092 -0.213,0.211 v 4.33 c 0,0.091 0.086,0.11 0.146,0.11 h 0.32 c 0.086,-10e-4 0.15,-0.073 0.15,-0.154 v -3.496 l 1.854,3.532 c 0.041,0.074 0.123,0.118 0.23,0.118 l 0,0 h 0.385 c 0.115,0 0.215,-0.097 0.215,-0.214 v -4.282 c 0,-0.076 -0.056,-0.154 -0.148,-0.154 z"
   id="path62"
   style="fill:#e20718" />
				<path
   d="m 331.152,420.879 c -0.469,0 -0.947,0.031 -1.129,0.064 -0.094,0.012 -0.162,0.089 -0.16,0.189 v 4.23 c -0.002,0.109 0.07,0.18 0.16,0.191 0.182,0.031 0.66,0.062 1.129,0.062 1.152,-0.003 1.9,-0.62 1.902,-1.952 v -0.832 c -10e-4,-1.343 -0.749,-1.948 -1.902,-1.952 z m 0,4.184 c -0.273,0 -0.465,0 -0.648,-0.01 v -3.602 c 0.191,-0.012 0.375,-0.016 0.648,-0.016 0.727,0.005 1.262,0.296 1.266,1.396 v 0.832 c -0.004,1.095 -0.539,1.394 -1.266,1.4 z"
   id="path64"
   style="fill:#e20718" />
				<path
   d="m 336.523,420.918 c -0.262,-0.025 -0.84,-0.039 -1.205,-0.039 -0.871,0.004 -1.348,0.348 -1.35,1.184 v 2.371 c 0.002,0.836 0.479,1.182 1.35,1.183 0.361,0 0.963,-0.006 1.205,-0.03 l -0.006,-0.037 0,0 0.006,0.036 c 0.063,-0.013 0.088,-0.071 0.092,-0.122 v -0.314 c 0,-0.056 -0.039,-0.11 -0.102,-0.11 h -1.191 c -0.648,-0.011 -0.709,-0.142 -0.721,-0.604 v -0.998 h 1.855 c 0.09,0 0.158,-0.071 0.158,-0.158 v -0.234 c 0,-0.089 -0.068,-0.16 -0.158,-0.16 h -1.855 v -0.82 c 0.012,-0.461 0.072,-0.592 0.721,-0.604 h 1.191 c 0.061,0 0.102,-0.054 0.102,-0.11 v -0.307 c -0.004,-0.055 -0.029,-0.113 -0.092,-0.127 z"
   id="path66"
   style="fill:#e20718" />
				<path
   d="m 342.348,420.922 h -0.328 c -0.086,0.004 -0.148,0.074 -0.148,0.156 v 3.49 l -1.842,-3.502 c -0.045,-0.1 -0.113,-0.148 -0.283,-0.145 h -0.342 c -0.113,0 -0.211,0.092 -0.211,0.211 v 4.33 c 0,0.091 0.086,0.11 0.148,0.11 h 0.318 c 0.084,-10e-4 0.146,-0.073 0.146,-0.154 v -3.496 l 1.861,3.532 c 0.033,0.076 0.119,0.118 0.225,0.118 h 0.004 0.379 c 0.121,0 0.215,-0.097 0.215,-0.216 v -4.279 c 0,-0.077 -0.052,-0.155 -0.142,-0.155 z"
   id="path68"
   style="fill:#e20718" />
				<path
   d="m 346.588,420.922 h -0.33 c -0.092,0 -0.154,0.074 -0.154,0.156 v 2.795 c -0.008,0.796 -0.227,1.184 -0.977,1.189 -0.74,-0.006 -0.963,-0.398 -0.969,-1.189 v -2.795 c 0,-0.089 -0.078,-0.156 -0.156,-0.156 h -0.334 c -0.086,0 -0.15,0.074 -0.15,0.156 v 2.795 c 0,1.189 0.6,1.74 1.609,1.743 1.018,-0.003 1.613,-0.554 1.617,-1.743 v -2.795 c 0,-0.089 -0.074,-0.156 -0.156,-0.156 z"
   id="path70"
   style="fill:#e20718" />
				<path
   d="m 351.357,420.922 h -0.4 c -0.113,-0.002 -0.191,0.036 -0.23,0.127 l -1.016,2.113 c -0.029,0.055 -0.023,0.043 -0.041,0.047 -0.018,-0.004 -0.016,0.008 -0.043,-0.047 l -1.014,-2.113 c -0.039,-0.091 -0.117,-0.129 -0.23,-0.127 h -0.4 c -0.119,0 -0.215,0.099 -0.215,0.217 v 4.275 c 0,0.088 0.07,0.159 0.162,0.159 h 0.297 c 0.09,0 0.162,-0.071 0.162,-0.159 v -3.537 l 0.832,1.717 c 0.057,0.129 0.145,0.204 0.307,0.201 h 0.285 c 0.16,0.003 0.25,-0.072 0.307,-0.201 l 0.832,-1.717 v 3.537 c 0,0.088 0.072,0.159 0.16,0.159 h 0.299 c 0.088,0 0.162,-0.071 0.162,-0.159 v -4.275 c -10e-4,-0.118 -0.096,-0.217 -0.216,-0.217 z"
   id="path72"
   style="fill:#e20718" />
				<path
   d="m 355.164,420.918 c -0.266,-0.025 -0.844,-0.039 -1.207,-0.039 -0.871,0.004 -1.348,0.348 -1.348,1.184 v 2.372 c 0,0.835 0.477,1.181 1.348,1.182 0.363,0 0.969,-0.006 1.205,-0.031 l -0.004,-0.036 0,0 0.006,0.036 c 0.064,-0.013 0.094,-0.071 0.094,-0.122 v -0.314 c 0,-0.057 -0.041,-0.11 -0.105,-0.11 h -1.189 c -0.648,-0.011 -0.709,-0.142 -0.721,-0.604 v -0.999 h 1.854 c 0.088,0 0.162,-0.07 0.162,-0.158 v -0.236 c 0,-0.087 -0.074,-0.158 -0.162,-0.158 h -1.854 v -0.82 c 0.012,-0.461 0.072,-0.592 0.721,-0.604 h 1.189 c 0.064,0 0.105,-0.054 0.105,-0.11 v -0.307 c 0,-0.054 -0.029,-0.112 -0.094,-0.126 z"
   id="path74"
   style="fill:#e20718" />
				<path
   d="m 353.656,420.682 h 0.332 c 0.002,0.002 0.002,0.002 0.004,0.002 0.082,0 0.115,-0.049 0.166,-0.105 l 0.693,-0.777 c 0.025,-0.023 0.035,-0.049 0.035,-0.072 0,-0.059 -0.059,-0.08 -0.105,-0.08 h -0.406 c -0.084,-0.004 -0.125,0.041 -0.174,0.106 l -0.607,0.763 c -0.023,0.026 -0.031,0.061 -0.031,0.086 0,0.043 0.044,0.077 0.093,0.077 z"
   id="path76"
   style="fill:#e20718" />
				<path
   d="m 358.24,423.551 c 0.547,-0.16 0.949,-0.58 0.945,-1.267 v -0.042 c 0,-1.023 -0.783,-1.359 -1.76,-1.363 -0.359,0 -0.822,0.02 -1.09,0.051 -0.113,0.006 -0.186,0.074 -0.18,0.173 v 4.312 c 0,0.084 0.064,0.159 0.148,0.159 h 0.332 c 0.096,-0.001 0.146,-0.084 0.146,-0.159 v -1.773 c 0.301,0.011 0.445,0.016 0.643,0.016 0.037,0 0.066,0 0.105,0 0.014,0 0.023,0 0.033,0 l 1.094,1.819 c 0.043,0.082 0.107,0.098 0.166,0.098 0.01,0 0.018,0 0.025,0 h 0.395 c 0.066,0 0.113,-0.056 0.113,-0.118 0.002,-0.025 -0.006,-0.052 -0.023,-0.074 l -1.092,-1.832 z m 0.319,-1.309 v 0.042 c -0.004,0.644 -0.377,0.813 -1.133,0.819 -0.135,0 -0.385,-0.005 -0.643,-0.012 v -1.618 c 0.158,-0.015 0.467,-0.015 0.643,-0.015 0.767,0.007 1.129,0.192 1.133,0.784 z"
   id="path78"
   style="fill:#e20718" />
				<path
   d="m 360.709,420.922 h -0.34 c -0.09,0 -0.145,0.077 -0.145,0.156 v 4.336 c 0,0.084 0.057,0.159 0.145,0.159 h 0.34 c 0.092,-10e-4 0.146,-0.084 0.146,-0.159 v -4.336 c 0,-0.087 -0.062,-0.156 -0.146,-0.156 z"
   id="path80"
   style="fill:#e20718" />
				<path
   d="m 363.557,420.879 c -0.984,0.004 -1.705,0.592 -1.705,1.973 v 0.795 c -0.004,1.227 0.57,1.832 1.389,1.945 v 0.246 c 0,0.664 0.354,0.842 0.963,0.842 0.311,-0.003 0.518,-0.024 0.533,-0.184 v -0.209 c 0,-0.096 -0.094,-0.135 -0.172,-0.135 h -0.361 c -0.314,-0.013 -0.334,-0.018 -0.346,-0.32 V 425.6 c 0.824,-0.11 1.402,-0.721 1.396,-1.953 v -0.795 c -0.002,-1.381 -0.717,-1.969 -1.697,-1.973 z m -1.069,1.973 c 0.008,-1.027 0.414,-1.387 1.068,-1.394 0.656,0.007 1.053,0.366 1.061,1.394 v 0.795 c -0.008,1.025 -0.41,1.386 -1.061,1.392 -0.66,-0.006 -1.061,-0.366 -1.068,-1.392 v -0.795 z"
   id="path82"
   style="fill:#e20718" />
				<path
   d="m 369.24,420.922 h -0.332 c -0.09,0 -0.154,0.076 -0.154,0.156 v 2.795 c -0.008,0.796 -0.229,1.184 -0.973,1.189 -0.744,-0.006 -0.967,-0.398 -0.975,-1.189 v -2.795 c 0,-0.091 -0.07,-0.156 -0.152,-0.156 h -0.336 c -0.088,0 -0.148,0.076 -0.148,0.156 v 2.795 c 0,1.189 0.6,1.742 1.611,1.743 1.012,-10e-4 1.611,-0.554 1.613,-1.743 v -2.795 c 10e-4,-0.091 -0.074,-0.156 -0.154,-0.156 z"
   id="path84"
   style="fill:#e20718" />
				<path
   d="m 371.771,421.458 h 1.189 c 0.061,0 0.104,-0.054 0.104,-0.11 v -0.307 c 0,-0.051 -0.029,-0.109 -0.09,-0.123 -0.266,-0.025 -0.844,-0.039 -1.209,-0.039 -0.869,0.004 -1.348,0.348 -1.35,1.184 v 2.372 c 0.002,0.835 0.48,1.181 1.35,1.182 0.365,0 0.969,-0.007 1.209,-0.03 l -0.008,-0.037 0.008,0.036 c 0.061,-0.013 0.09,-0.071 0.09,-0.122 v -0.314 c 0,-0.057 -0.043,-0.11 -0.104,-0.11 h -1.189 c -0.645,-0.012 -0.709,-0.142 -0.721,-0.604 v -0.999 h 1.855 c 0.088,0 0.158,-0.071 0.158,-0.158 v -0.236 c 0,-0.087 -0.07,-0.158 -0.158,-0.158 h -1.855 v -0.82 c 0.013,-0.463 0.077,-0.594 0.721,-0.607 z"
   id="path86"
   style="fill:#e20718" />
			</g>
		</g>
	</g><g
   id="g3424"
   transform="matrix(0.28170367,0,0,0.28170367,303.77156,314.9051)"><g
     transform="matrix(1.25,0,0,-1.25,-334.51768,305.72532)"
     id="g2382"><path
       id="path2384"
       style="fill:#ffffff;fill-opacity:1;fill-rule:nonzero;stroke:none"
       d="m 0,0 470.577,0 0.102,-196.224 -470.577,0 L 0,0 z" /></g><g
     id="g2386"
     transform="matrix(1.25,0,0,-1.25,-411.35118,1196.2545)"><g
       clip-path="url(#clipPath2390)"
       id="g2388"><g
         id="g2394"><g
           id="g2396"><path
             id="path2404"
             style="fill:url(#radialGradient3437);stroke:none"
             d="m 167.674,685.688 c -4.781,-4.088 -9.703,-8.604 -14.203,-13.878 l 0,0 c -2.631,-3.073 10,-1.8 15.764,1.673 l 0,0 c 5.814,3.502 11.798,8.189 17.171,13.641 l 0,0 c 1.688,1.713 -0.283,2.431 -3.535,2.431 l 0,0 c -4.845,0 -12.535,-1.594 -15.197,-3.867 M 139.371,657.586 C 115.868,633.93 92.207,607.537 85.535,586.993 l 0,0 c -3.687,-11.358 -0.284,-21.562 13.829,-21.562 l 0,0 c 11.586,0 24.419,5.74 35.318,12.556 l 0,0 c -2.68,-3.656 -5.13,-6.977 -7.095,-9.651 l 0,0 c -3.076,-4.167 12.519,-2.644 15.808,1.554 l 0,0 c 12.335,15.777 41.969,35.189 50.221,35.189 l 0,0 c 7.508,0 -18.357,-19.383 -18.117,-31.248 l 0,0 c 0.3,-15.583 36.394,-6.039 48.642,9.999 l 0,0 c 1.92,2.5 0.422,9.389 -1.307,7.713 l 0,0 c -5.603,-5.474 -17.872,-14.635 -28.595,-14.635 l 0,0 c -7.932,0 7.867,14.21 15.69,25.666 l 0,0 c 7.468,10.944 1.361,14.221 -4.806,14.221 l 0,0 c -15.269,0 -30.182,-10.717 -40.293,-18.254 l 0,0 c 3.054,4.089 7.809,9.332 12.881,16.026 l 0,0 c 2.81,3.717 -14.025,2.384 -18.333,-3.288 l 0,0 c -1.373,-1.795 -2.887,-3.809 -4.502,-5.961 l 0,0 c -14.61,-17.563 -36.681,-29.412 -47.511,-29.412 l 0,0 c -6.037,0 -8.234,4.157 -4.476,12.016 l 0,0 c 9.057,18.948 40.266,54.953 57.228,70.718 l 0,0 c 3.265,3.06 0.985,4.294 -3.129,4.294 l 0,0 c -5.588,0 -14.56,-2.277 -17.617,-5.348 m 199.818,-15.21 c -4.789,-4.094 -12.747,-11.426 -17.25,-16.703 l 0,0 c -2.624,-3.078 8.1,-2.769 13.864,0.701 l 0,0 c 5.81,3.501 16.74,11.986 22.119,17.436 l 0,0 c 1.688,1.713 -0.286,2.431 -3.539,2.431 l 0,0 c -4.847,0 -12.534,-1.593 -15.194,-3.865 M 229.936,599.812 c -2.419,-2.841 -1.167,-9.955 1.332,-7.486 l 0,0 c 15.649,15.481 15.293,14.22 36.009,14.22 l 0,0 c -3.331,-3.538 -9.267,-7.068 -19.337,-19.847 l 0,0 c -8.972,-11.401 -3.102,-20.615 9.64,-20.615 l 0,0 c 7.046,0 17.563,3.305 27.183,10.084 l 0,0 c -1.152,-5.94 1.233,-10.192 10.306,-10.192 l 0,0 c 10.511,0 22.513,6.253 32.458,13.207 l 0,0 c -1.246,-7.544 2.637,-13.207 13.764,-13.207 l 0,0 c 8.561,0 18.529,3.362 28.82,12.284 l 0,0 c -0.054,-6.818 4.754,-12.233 13.717,-12.233 l 0,0 c 21.824,0 97.199,27.374 123.424,11.565 l 0,0 c 3.283,-1.972 3.137,8.303 -3.479,12.417 l 0,0 C 480.09,604.764 415.322,579.051 390.756,576.121 l 0,0 c -4.604,-0.55 -6.28,0.612 -5.193,3.736 l 0,0 c 2.083,6.023 10.295,17.1 11.947,20.915 l 0,0 c 1.558,3.643 1.346,16.165 -17.176,16.165 l 0,0 c -15.135,0 -29.02,-7.028 -38.779,-15.875 l 0,0 c -9.299,-7.93 -27.315,-23.62 -38.406,-23.62 l 0,0 c -11.48,0 22.144,34.687 24.001,36.437 l 0,0 c 4.999,4.689 -10.759,3.532 -17.381,-1.512 l 0,0 c -2.644,-2.013 -13.214,-13.317 -19.825,-24.265 l 0,0 c -19.121,-13.217 -38.156,-16.285 -29.098,-5.298 l 0,0 c 4.814,5.856 12.962,13.699 18.566,19.912 l 0,0 c 7.822,8.676 6.41,14.384 -10.863,14.384 l 0,0 c -23.122,0 -25.568,-2.012 -38.613,-17.288 m 150.232,8.687 c 11.175,0 -19.211,-32.702 -33.012,-32.702 l 0,0 c -14.31,0 14.346,32.702 33.012,32.702" /></g></g></g></g><g
     id="g2406"
     transform="matrix(1.25,0,0,-1.25,-411.35118,1196.2545)"><g
       clip-path="url(#clipPath2410)"
       id="g2408"><g
         transform="translate(508.1377,544.1616)"
         id="g2414"><path
           id="path2416"
           style="fill:#ed1c24;fill-opacity:1;fill-rule:nonzero;stroke:none"
           d="m 0,0 c -0.021,-3.1 -1.522,-3.931 -3.584,-3.951 -0.765,0 -1.301,0 -1.817,0.028 l 0,10.194 c 0.532,0.032 1.052,0.046 1.817,0.046 C -1.522,6.296 -0.021,5.484 0,2.363 L 0,0 z M -3.584,7.933 C -4.921,7.933 -6.267,7.846 -6.791,7.755 -7.069,7.722 -7.27,7.489 -7.262,7.194 l 0,-12.025 c -0.01,-0.308 0.2,-0.528 0.473,-0.559 0.522,-0.09 1.868,-0.176 3.205,-0.176 3.283,0.005 5.423,1.771 5.427,5.566 l 0,2.363 c -0.004,3.832 -2.144,5.565 -5.427,5.57 m -5.862,-11.815 -3.378,0 c -1.841,0.04 -1.99,0.386 -2.029,1.695 l 0.003,9.521 c -0.003,0.263 -0.217,0.476 -0.478,0.476 l -0.893,0 c -0.261,0 -0.473,-0.213 -0.473,-0.476 l -0.003,-9.521 c 0.005,-2.964 1.982,-3.376 3.856,-3.379 1.651,0 2.96,0.086 3.43,0.158 l -0.019,0.123 0.022,-0.123 c 0.193,0.044 0.275,0.217 0.279,0.37 l 0,0.821 c 0,0.169 -0.128,0.335 -0.317,0.335 m -14.999,5.495 c -0.378,0 -1.075,0.017 -1.801,0.033 l 0,4.56 c 0.449,0.041 1.307,0.043 1.801,0.043 2.183,-0.023 3.188,-0.535 3.201,-2.205 l 0,-0.122 c -0.015,-1.815 -1.052,-2.284 -3.201,-2.309 m 2.344,-1.302 c 1.553,0.46 2.687,1.665 2.681,3.611 l 0,0.122 c -0.005,2.922 -2.245,3.885 -5.025,3.888 -1.018,0 -2.332,-0.051 -3.094,-0.14 -0.332,-0.015 -0.551,-0.219 -0.53,-0.511 l -0.002,-12.25 c 0.002,-0.252 0.187,-0.472 0.443,-0.474 l 0.942,0 c 0.279,0.002 0.44,0.248 0.44,0.474 l 0.003,5.016 C -25.405,0.015 -24.998,0 -24.445,0 l 0.383,0 3.098,-5.155 c 0.128,-0.234 0.317,-0.291 0.493,-0.291 0.024,0 0.046,10e-4 0.069,0.003 l 1.121,0 c 0.21,0 0.35,0.172 0.35,0.352 0.003,0.082 -0.027,0.158 -0.073,0.228 l -3.097,5.174 z M -32.529,0.055 c -0.022,-2.911 -1.146,-3.92 -2.992,-3.937 -1.865,0.017 -2.989,1.026 -3.007,3.937 L -38.53,2.31 c 0.02,2.914 1.161,3.921 3.009,3.938 1.864,-0.017 2.97,-1.022 2.992,-3.938 l 0,-2.255 z m -2.992,7.878 C -38.325,7.927 -40.385,6.242 -40.39,2.31 l 0,-2.255 c 0.005,-3.931 2.065,-5.616 4.869,-5.621 2.802,0.005 4.844,1.693 4.85,5.621 l -0.002,2.255 c -0.004,3.93 -2.046,5.617 -4.848,5.623 m -6.855,-0.123 -1.016,0 c -0.209,0.002 -0.383,-0.164 -0.423,-0.4 l -1.683,-11.061 -1.694,6.397 c -0.118,0.501 -0.443,0.805 -0.944,0.792 l -1.12,0 c -0.501,0.013 -0.829,-0.291 -0.942,-0.792 l -1.697,-6.402 -1.682,11.062 c -0.04,0.24 -0.216,0.406 -0.422,0.404 l -1.015,0 c -0.237,0 -0.424,-0.185 -0.424,-0.422 l 0,-0.053 1.945,-11.851 c 0.117,-0.77 0.629,-1.015 1.21,-0.997 l 0.734,0 c 0.556,-0.002 0.972,0.406 1.118,0.968 l 1.733,6.475 c 10e-4,0.003 10e-4,0.006 0.002,0.008 l 0,-0.002 1.717,-6.481 c 0.146,-0.562 0.561,-0.97 1.119,-0.968 l 0.753,0 c 0.02,0 0.041,-0.001 0.061,-0.001 0.554,0 1.033,0.255 1.145,0.998 l 1.945,11.83 -0.123,0.021 0.123,0 0,0.053 c 0,0.237 -0.185,0.422 -0.42,0.422 m -19.253,-11.692 -3.377,0 c -1.84,0.04 -1.99,0.386 -2.028,1.695 l 0.002,9.523 c -0.002,0.261 -0.215,0.473 -0.477,0.473 l -0.893,0 c -0.262,0 -0.473,-0.212 -0.473,-0.473 l -0.003,-9.523 c 0.005,-2.964 1.981,-3.376 3.856,-3.379 1.65,0 2.96,0.086 3.429,0.159 l -0.018,0.122 0.02,-0.122 c 0.195,0.042 0.277,0.216 0.28,0.368 l 0,0.823 c 0,0.169 -0.127,0.334 -0.318,0.334 m -15.919,4.359 1.551,5.599 c 0.057,0.17 0.099,0.218 0.23,0.224 0.103,-0.004 0.157,-0.054 0.211,-0.224 l 1.549,-5.599 -3.541,0 z m 3.669,6.051 c -0.309,1.131 -1.217,1.411 -1.888,1.405 -0.694,0.006 -1.596,-0.292 -1.906,-1.421 l -3.238,-11.395 c -0.029,-0.056 -0.021,-0.119 -0.023,-0.155 0,-0.226 0.188,-0.405 0.422,-0.405 l 1.035,0 c 0.211,0.005 0.382,0.161 0.435,0.359 l 1.093,3.93 4.344,0 1.112,-3.936 c 0.04,-0.172 0.188,-0.353 0.42,-0.353 l 1.031,0 c 0.25,0 0.422,0.188 0.422,0.405 -0.002,0.036 0.008,0.099 -0.031,0.178 l -3.228,11.388 z m -6.783,0.073 0,0.768 c 0,0.261 -0.213,0.441 -0.459,0.441 l -8.417,0 c -0.252,0 -0.474,-0.185 -0.476,-0.441 l 0,-0.768 c 0,-0.281 0.255,-0.406 0.476,-0.406 l 3.284,0 0,-11.164 c 0.003,-0.252 0.189,-0.473 0.443,-0.475 l 0.964,0 c 0.277,0.004 0.439,0.248 0.439,0.475 l 0,11.164 3.287,0 c 0.233,0 0.459,0.151 0.459,0.406 m -12.132,1.209 -0.961,0 c -0.269,0 -0.442,-0.226 -0.442,-0.457 l 0,-12.323 c 0,-0.25 0.185,-0.472 0.442,-0.474 l 0.961,0 c 0.277,0.004 0.44,0.248 0.44,0.474 l 0.001,12.323 c -0.001,0.256 -0.197,0.457 -0.441,0.457 m -4.951,-6.249 -0.946,0 c -0.269,0 -0.44,-0.232 -0.44,-0.475 l 0,-4.89 c -0.432,-0.037 -1.11,-0.094 -2.08,-0.096 -1.557,0.012 -2.803,1.047 -2.817,3.9 l 0,2.347 c 0.019,3.11 1.398,3.882 2.975,3.9 1.485,0 2.284,-0.035 3.314,-0.121 l 0.081,0 c 0.176,0 0.35,0.113 0.35,0.299 l 0,0.875 c 0.004,0.263 -0.231,0.377 -0.406,0.388 -0.663,0.103 -1.705,0.245 -3.339,0.245 -2.283,-0.006 -4.813,-1.278 -4.815,-5.586 l 0,-2.347 c 0.002,-4.062 2.415,-5.562 4.657,-5.565 l 0.042,0 c 1.625,0 2.606,0.122 3.461,0.262 l -0.021,0.123 0.023,-0.121 c 0.252,0.042 0.421,0.263 0.417,0.506 l 0,5.881 c -0.002,0.261 -0.206,0.473 -0.456,0.475 m -11.305,6.249 -0.963,0 c -0.268,0 -0.439,-0.227 -0.439,-0.458 l -0.002,-12.322 c 0.002,-0.25 0.185,-0.472 0.441,-0.474 l 0.963,0 c 0.278,0.004 0.438,0.25 0.438,0.474 l 0.002,12.322 c -0.002,0.253 -0.196,0.458 -0.44,0.458 m -5.971,-7.809 c -0.02,-3.101 -1.522,-3.931 -3.583,-3.953 -0.766,0 -1.302,0.002 -1.82,0.029 l 0,10.194 c 0.534,0.031 1.055,0.045 1.82,0.047 2.061,-0.022 3.563,-0.835 3.583,-3.955 l 0,-2.362 z m -3.583,7.931 c -1.338,0 -2.684,-0.086 -3.208,-0.175 -0.279,-0.036 -0.48,-0.268 -0.47,-0.564 l 0,-12.022 c -0.013,-0.309 0.198,-0.531 0.473,-0.561 0.521,-0.089 1.867,-0.175 3.205,-0.175 3.282,0.004 5.421,1.771 5.426,5.566 l 0,2.362 c -0.005,3.832 -2.144,5.564 -5.426,5.569 m -11.232,-0.107 c -0.756,0.073 -2.398,0.107 -3.435,0.107 -2.476,-0.002 -3.849,-0.994 -3.851,-3.38 l 0,-6.74 c 0.002,-2.383 1.375,-3.375 3.851,-3.377 1.037,0 2.746,0.016 3.427,0.086 l -0.012,0.124 0.02,-0.123 c 0.194,0.042 0.273,0.217 0.277,0.37 l 0,0.891 c 0,0.167 -0.125,0.335 -0.316,0.335 l -3.378,0 c -1.842,0.04 -1.992,0.386 -2.029,1.694 l 0,2.818 5.249,0 c 0.262,0 0.474,0.213 0.474,0.473 l 0,0.667 c 0,0.26 -0.212,0.475 -0.474,0.475 l -5.249,0 0,2.307 c 0.037,1.308 0.187,1.656 2.029,1.696 l 3.378,0 c 0.191,0 0.316,0.169 0.316,0.335 l 0,0.875 c -0.004,0.152 -0.085,0.325 -0.277,0.367 m -10.678,-0.015 -0.891,0 c -0.263,0 -0.478,-0.212 -0.478,-0.475 l 0,-4.951 -5.736,0 0.002,4.951 c 0,0.263 -0.215,0.475 -0.478,0.475 l -0.891,0 c -0.261,0 -0.475,-0.212 -0.475,-0.475 l 0,-12.305 c 0,-0.26 0.214,-0.474 0.475,-0.474 l 0.891,0 c 0.265,0 0.478,0.214 0.478,0.474 l 0,5.687 5.734,0 0,-5.687 c 0,-0.26 0.213,-0.474 0.478,-0.474 l 0.891,0 c 0.261,0 0.475,0.214 0.475,0.474 l 0,12.305 c 0,0.263 -0.214,0.475 -0.475,0.475 m -11.569,0 -8.416,0 c -0.252,0 -0.475,-0.183 -0.477,-0.44 l 0,-0.77 c 0,-0.28 0.254,-0.405 0.477,-0.405 l 3.286,0 0,-11.165 c 0,-0.25 0.186,-0.472 0.44,-0.474 l 0.962,0 c 0.28,0.004 0.44,0.25 0.44,0.474 l 0,11.165 3.288,0 c 0.233,0 0.457,0.152 0.457,0.405 l 0,0.77 c 0,0.261 -0.211,0.44 -0.457,0.44 m -20.648,-6.196 c -0.378,0 -1.075,0.015 -1.802,0.032 l 0,4.56 c 0.448,0.04 1.304,0.042 1.802,0.042 2.181,-0.023 3.184,-0.533 3.197,-2.205 l 0.002,0 0,-0.12 c -0.017,-1.816 -1.053,-2.286 -3.199,-2.309 m 2.343,-1.303 c 1.552,0.46 2.687,1.665 2.681,3.612 l 0,0.12 c -0.004,2.922 -2.246,3.887 -5.024,3.889 -1.021,0 -2.335,-0.052 -3.096,-0.14 -0.334,-0.015 -0.551,-0.219 -0.529,-0.511 l -0.002,-12.25 c 0.002,-0.25 0.184,-0.472 0.441,-0.474 l 0.944,0 c 0.279,0.002 0.44,0.248 0.44,0.474 l 0,5.017 c 0.838,-0.032 1.246,-0.049 1.802,-0.049 l 0.382,0 3.098,-5.153 c 0.127,-0.235 0.313,-0.292 0.493,-0.292 0.024,0 0.046,10e-4 0.07,0.003 l 1.119,0 c 0.208,0 0.351,0.171 0.351,0.351 0.002,0.084 -0.026,0.16 -0.072,0.228 l -3.098,5.175 z M -180.82,0.052 c -0.021,-2.908 -1.144,-3.917 -2.991,-3.934 -1.862,0.017 -2.988,1.026 -3.006,3.934 l -0.002,2.259 c 0.02,2.913 1.163,3.919 3.008,3.936 1.866,-0.017 2.97,-1.023 2.991,-3.936 l 0,-2.259 z m -2.991,7.881 c -2.802,-0.006 -4.863,-1.692 -4.867,-5.622 l 0,-2.259 c 0.004,-3.928 2.065,-5.614 4.867,-5.619 2.803,0.005 4.847,1.693 4.852,5.619 l 0,2.259 c -0.005,3.93 -2.049,5.616 -4.852,5.622 m -7.13,-0.107 c -0.757,0.071 -2.399,0.107 -3.435,0.107 -2.476,-0.004 -3.849,-0.996 -3.853,-3.382 l 0,-9.521 c 0,-0.26 0.211,-0.474 0.476,-0.474 l 0.892,0 c 0.262,0 0.474,0.214 0.474,0.474 l 0,5.6 5.249,0 c 0.261,0 0.473,0.212 0.473,0.474 l 0,0.666 c 0,0.262 -0.21,0.474 -0.473,0.474 l -5.249,0 0,2.307 c 0.036,1.31 0.188,1.657 2.028,1.696 l 3.38,0 c 0.192,0 0.314,0.169 0.314,0.336 l 0,0.875 c -0.002,0.151 -0.083,0.325 -0.276,0.368 m -17.285,-6.088 -1.608,0.96 c -1.333,0.811 -1.848,1.268 -1.846,2.011 0.014,1.2 0.642,1.514 2.449,1.538 1.009,0 2.231,-0.052 3,-0.104 l 0.043,0 c 0.223,0 0.421,0.163 0.421,0.404 l 0,0.753 c 0.006,0.248 -0.2,0.389 -0.396,0.421 -0.684,0.106 -2.029,0.212 -3.068,0.212 -2.681,-0.004 -4.306,-1.025 -4.31,-3.224 -0.002,-1.458 0.856,-2.398 2.476,-3.38 l 1.698,-1.031 c 1.596,-0.987 2.037,-1.434 2.04,-2.24 -0.024,-1.177 -0.467,-1.914 -2.536,-1.94 -0.8,0 -2.078,0.035 -2.876,0.105 -0.029,0.002 -0.046,0.002 -0.064,0 -0.198,0 -0.424,-0.14 -0.424,-0.405 l 0,-0.7 c -0.028,-0.211 0.13,-0.417 0.438,-0.437 0.773,-0.123 1.692,-0.248 2.926,-0.248 3.496,0.004 4.442,1.9 4.448,3.625 0.003,1.455 -0.769,2.473 -2.811,3.68 M -220.8,1.614 c -0.379,0 -1.074,0.015 -1.801,0.032 l 0,4.559 c 0.448,0.041 1.305,0.043 1.801,0.043 2.181,-0.023 3.188,-0.533 3.2,-2.205 l 0,-0.12 c -0.014,-1.816 -1.052,-2.286 -3.2,-2.309 m 2.345,-1.303 c 1.552,0.461 2.687,1.666 2.681,3.612 l 0,0.12 c -0.006,2.922 -2.247,3.887 -5.026,3.891 -1.019,-0.002 -2.334,-0.054 -3.095,-0.142 -0.333,-0.015 -0.552,-0.219 -0.531,-0.511 l 0,-12.25 c 0,-0.252 0.186,-0.472 0.44,-0.474 l 0.946,0 c 0.277,0.002 0.439,0.248 0.439,0.474 l 0,5.017 c 0.839,-0.032 1.247,-0.049 1.801,-0.049 l 0.384,0 3.098,-5.153 c 0.125,-0.235 0.313,-0.292 0.492,-0.292 0.023,0 0.046,10e-4 0.068,0.003 l 1.121,0 c 0.209,0 0.352,0.171 0.352,0.351 0,0.081 -0.027,0.16 -0.072,0.228 l -3.098,5.175 z m -10.433,-0.259 c -0.019,-2.908 -1.144,-3.917 -2.99,-3.934 -1.865,0.017 -2.988,1.026 -3.007,3.934 l 0,2.259 c 0.019,2.913 1.161,3.919 3.007,3.936 1.865,-0.017 2.971,-1.023 2.99,-3.936 l 0,-2.259 z m -2.99,7.881 c -2.801,-0.006 -4.863,-1.692 -4.868,-5.622 l 0,-2.259 c 0.005,-3.928 2.067,-5.614 4.868,-5.619 2.803,0.005 4.847,1.693 4.851,5.619 l 0,2.259 c -0.004,3.93 -2.048,5.616 -4.851,5.622 m -6.383,-0.123 -8.42,0 c -0.25,0 -0.471,-0.186 -0.473,-0.44 l 0,-0.77 c 0,-0.278 0.252,-0.405 0.473,-0.405 l 3.288,0 0,-11.165 c 0,-0.25 0.185,-0.472 0.442,-0.474 l 0.963,0 c 0.277,0.004 0.439,0.248 0.439,0.474 l 0,11.165 3.288,0 c 0.234,0 0.457,0.152 0.457,0.405 l 0,0.77 c 0,0.259 -0.213,0.44 -0.457,0.44 m -10.899,-10e-4 -0.929,0 c -0.252,-0.002 -0.437,-0.217 -0.439,-0.456 l 0,-9.832 -5.191,9.871 c -0.129,0.284 -0.336,0.438 -0.827,0.417 l -0.963,0 c -0.342,0 -0.631,-0.26 -0.634,-0.615 l 0,-12.302 c 0,-0.278 0.271,-0.335 0.442,-0.335 l 0.909,0 c 0.254,0.002 0.439,0.216 0.439,0.456 l 0.002,9.845 5.241,-9.954 c 0.111,-0.223 0.355,-0.347 0.656,-0.347 l 1.101,0 c 0.35,0 0.631,0.283 0.631,0.63 l 0,12.166 c 0,0.229 -0.171,0.456 -0.438,0.456 m -11.776,0.018 c -0.754,0.07 -2.396,0.106 -3.432,0.106 -2.477,-0.004 -3.851,-0.994 -3.853,-3.382 l 0,-6.739 c 0.002,-2.383 1.376,-3.375 3.853,-3.379 1.034,0.002 2.746,0.018 3.426,0.088 l -0.015,0.124 0.021,-0.124 c 0.194,0.044 0.275,0.217 0.279,0.37 l 0,0.894 c 0,0.168 -0.127,0.333 -0.316,0.333 l -3.378,0 c -1.84,0.039 -1.99,0.386 -2.027,1.694 l 0,2.818 5.249,0 c 0.26,0 0.472,0.212 0.472,0.474 l 0,0.666 c 0,0.262 -0.212,0.474 -0.472,0.474 l -5.252,0 0.003,2.307 c 0.037,1.31 0.187,1.657 2.027,1.696 l 3.378,0 c 0.191,0 0.316,0.167 0.316,0.336 l 0,0.875 c -0.004,0.154 -0.085,0.325 -0.279,0.369 m -9.397,-0.017 -1.032,0 c -0.216,-0.004 -0.37,-0.171 -0.421,-0.357 l -3.061,-11.146 c -0.076,-0.24 -0.116,-0.273 -0.212,-0.277 -0.121,0.008 -0.15,0.037 -0.229,0.277 l -3.046,11.148 c -0.053,0.194 -0.222,0.348 -0.434,0.355 l -1.017,0 c -0.231,0 -0.44,-0.175 -0.44,-0.423 0,-0.033 -0.002,-0.094 0.032,-0.161 l 3.23,-11.372 c 0.327,-1.164 1.233,-1.428 1.904,-1.42 l 0.038,0 c 0.682,0 1.547,0.28 1.869,1.42 l 3.215,11.382 c 0.029,0.063 0.027,0.118 0.027,0.151 0,0.237 -0.188,0.423 -0.423,0.423 m -12.072,-10e-4 -0.928,0 c -0.253,-0.002 -0.439,-0.217 -0.439,-0.456 l 0,-9.832 -5.19,9.871 c -0.13,0.284 -0.336,0.438 -0.828,0.417 l -0.962,0 c -0.344,0 -0.634,-0.26 -0.634,-0.615 l 0,-12.302 c 0,-0.278 0.269,-0.335 0.44,-0.335 l 0.91,0 c 0.254,0.002 0.44,0.216 0.44,0.456 l 0,9.849 5.242,-9.958 c 0.109,-0.223 0.355,-0.347 0.657,-0.347 l 1.1,0 c 0.35,0 0.632,0.283 0.632,0.63 l 0,12.166 c 0,0.229 -0.171,0.456 -0.44,0.456 m -12.512,10e-4 -0.964,0 c -0.267,0 -0.44,-0.227 -0.44,-0.458 l 0,-12.322 c 0,-0.25 0.185,-0.472 0.44,-0.474 l 0.964,0 c 0.277,0.004 0.438,0.248 0.438,0.474 l 0.002,12.322 c -0.002,0.255 -0.196,0.458 -0.44,0.458" /></g></g></g></g>
	
</g>
</svg>